<?xml version="1.0" encoding="utf-8"?>
<!-- Generator: Adobe Illustrator 16.0.4, SVG Export Plug-In . SVG Version: 6.00 Build 0)  -->
<!DOCTYPE svg PUBLIC "-//W3C//DTD SVG 1.1//EN" "http://www.w3.org/Graphics/SVG/1.1/DTD/svg11.dtd">
<svg version="1.1" id="Layer_1" xmlns="http://www.w3.org/2000/svg" xmlns:xlink="http://www.w3.org/1999/xlink" x="0px" y="0px"
	 width="243.062px" height="116.636px" viewBox="0 0 243.062 116.636" enable-background="new 0 0 243.062 116.636"
	 xml:space="preserve">
<g>
	<g>
		<g>
			<rect x="28.271" y="0.954" fill="#5A6374" width="1.525" height="115.682"/>
			<rect x="31.321" y="0.954" fill="#5A6374" width="1.524" height="115.682"/>
			<rect x="34.371" y="0.954" fill="#5A6374" width="1.523" height="115.682"/>
			<rect x="37.42" y="0.954" fill="#5A6374" width="1.526" height="115.682"/>
			<rect x="40.469" y="0.954" fill="#5A6374" width="1.524" height="115.682"/>
			<rect x="43.518" y="0.954" fill="#5A6374" width="1.525" height="115.682"/>
			<rect x="46.567" y="0.954" fill="#5A6374" width="1.525" height="115.682"/>
			<rect x="49.618" y="0.954" fill="#5A6374" width="1.523" height="115.682"/>
			<rect x="52.667" y="0.954" fill="#5A6374" width="1.523" height="115.682"/>
			<rect x="55.715" y="0.954" fill="#5A6374" width="1.526" height="115.682"/>
			<rect x="58.765" y="0.954" fill="#5A6374" width="1.525" height="115.682"/>
			<rect x="61.813" y="0.954" fill="#5A6374" width="1.524" height="115.682"/>
		</g>
		<g>
			<rect x="29.797" y="0.954" fill="#48505A" width="1.524" height="115.682"/>
			<rect x="32.846" y="0.954" fill="#48505A" width="1.524" height="115.682"/>
			<rect x="35.895" y="0.954" fill="#48505A" width="1.525" height="115.682"/>
			<rect x="38.944" y="0.954" fill="#48505A" width="1.524" height="115.682"/>
			<rect x="41.993" y="0.954" fill="#48505A" width="1.524" height="115.682"/>
			<rect x="45.043" y="0.954" fill="#48505A" width="1.524" height="115.682"/>
			<rect x="48.092" y="0.954" fill="#48505A" width="1.526" height="115.682"/>
			<rect x="51.142" y="0.954" fill="#48505A" width="1.525" height="115.682"/>
			<rect x="54.19" y="0.954" fill="#48505A" width="1.524" height="115.682"/>
			<rect x="57.241" y="0.954" fill="#48505A" width="1.523" height="115.682"/>
			<rect x="60.29" y="0.954" fill="#48505A" width="1.523" height="115.682"/>
			<rect x="63.338" y="0.954" fill="#48505A" width="1.526" height="115.682"/>
		</g>
	</g>
	<rect x="27.796" fill="#48505A" width="37.545" height="2.099"/>
</g>
<g>
	<rect x="44.866" y="16.804" fill="#02AAAD" width="33.265" height="92.543"/>
	<rect x="43.44" y="107.521" fill="#50C3C7" width="36.115" height="9.114"/>
	<rect x="43.44" y="108.212" fill="#02AAAD" width="5.432" height="8.424"/>
	<rect x="74.124" y="108.212" fill="#02AAAD" width="5.432" height="8.424"/>
	<rect x="47.116" y="108.212" fill="#02AAAD" width="30.878" height="8.424"/>
	<rect x="44.866" y="16.804" fill="#50C3C7" width="33.265" height="3.48"/>
	<rect x="43.203" y="13.351" fill="#02AAAD" width="36.59" height="4.288"/>
	<g>
		<rect x="47.396" y="22.737" fill="#50C3C7" width="5.562" height="5.561"/>
		<rect x="54.943" y="22.737" fill="#50C3C7" width="5.562" height="5.561"/>
		<rect x="62.491" y="22.737" fill="#5A6374" width="5.562" height="5.561"/>
		<rect x="70.04" y="22.737" fill="#5A6374" width="5.561" height="5.561"/>
	</g>
	<g>
		<rect x="47.396" y="30.113" fill="#5A6374" width="5.562" height="5.562"/>
		<rect x="54.943" y="30.113" fill="#5A6374" width="5.562" height="5.562"/>
		<rect x="62.491" y="30.113" fill="#5A6374" width="5.562" height="5.562"/>
		<rect x="70.04" y="30.113" fill="#5A6374" width="5.561" height="5.562"/>
	</g>
	<g>
		<rect x="47.396" y="37.492" fill="#5A6374" width="5.562" height="5.562"/>
		<rect x="54.943" y="37.492" fill="#5A6374" width="5.562" height="5.562"/>
		<rect x="62.491" y="37.492" fill="#50C3C7" width="5.562" height="5.562"/>
		<rect x="70.04" y="37.492" fill="#5A6374" width="5.561" height="5.562"/>
	</g>
	<g>
		<rect x="47.396" y="44.868" fill="#5A6374" width="5.562" height="5.562"/>
		<rect x="54.943" y="44.868" fill="#50C3C7" width="5.562" height="5.562"/>
		<rect x="62.491" y="44.868" fill="#5A6374" width="5.562" height="5.562"/>
		<rect x="70.04" y="44.868" fill="#5A6374" width="5.561" height="5.562"/>
	</g>
	<g>
		<rect x="47.396" y="52.247" fill="#5A6374" width="5.562" height="5.562"/>
		<rect x="54.943" y="52.247" fill="#5A6374" width="5.562" height="5.562"/>
		<rect x="62.491" y="52.247" fill="#5A6374" width="5.562" height="5.562"/>
		<rect x="70.04" y="52.247" fill="#5A6374" width="5.561" height="5.562"/>
	</g>
	<g>
		<rect x="47.396" y="59.625" fill="#50C3C7" width="5.562" height="5.562"/>
		<rect x="54.943" y="59.625" fill="#5A6374" width="5.562" height="5.562"/>
		<rect x="62.491" y="59.625" fill="#5A6374" width="5.562" height="5.562"/>
		<rect x="70.04" y="59.625" fill="#50C3C7" width="5.561" height="5.562"/>
	</g>
	<g>
		<rect x="47.396" y="67.003" fill="#50C3C7" width="5.562" height="5.561"/>
		<rect x="54.943" y="67.003" fill="#5A6374" width="5.562" height="5.561"/>
		<rect x="62.491" y="67.003" fill="#5A6374" width="5.562" height="5.561"/>
		<rect x="70.04" y="67.003" fill="#5A6374" width="5.561" height="5.561"/>
	</g>
	<g>
		<rect x="47.396" y="74.379" fill="#5A6374" width="5.562" height="5.562"/>
		<rect x="54.943" y="74.379" fill="#50C3C7" width="5.562" height="5.562"/>
		<rect x="62.491" y="74.379" fill="#5A6374" width="5.562" height="5.562"/>
		<rect x="70.04" y="74.379" fill="#5A6374" width="5.561" height="5.562"/>
	</g>
	<g>
		<rect x="47.396" y="81.758" fill="#5A6374" width="5.562" height="5.562"/>
		<rect x="54.943" y="81.758" fill="#5A6374" width="5.562" height="5.562"/>
		<rect x="62.491" y="81.758" fill="#5A6374" width="5.562" height="5.562"/>
		<rect x="70.04" y="81.758" fill="#50C3C7" width="5.561" height="5.562"/>
	</g>
	<g>
		<rect x="47.396" y="89.136" fill="#5A6374" width="5.562" height="5.562"/>
		<rect x="54.943" y="89.136" fill="#5A6374" width="5.562" height="5.562"/>
		<rect x="62.491" y="89.136" fill="#5A6374" width="5.562" height="5.562"/>
		<rect x="70.04" y="89.136" fill="#5A6374" width="5.561" height="5.562"/>
	</g>
</g>
<g>
	<polygon fill="#02AAAD" points="0,45.481 18.308,39.889 36.612,45.481 	"/>
	<rect x="1.682" y="48.931" fill="#02AAAD" width="33.267" height="60.416"/>
	<rect x="0.257" y="107.521" fill="#50C3C7" width="36.116" height="9.114"/>
	<rect x="0.257" y="108.212" fill="#02AAAD" width="5.433" height="8.424"/>
	<rect x="3.307" y="108.212" fill="#02AAAD" width="33.066" height="8.424"/>
	<rect x="1.682" y="48.931" fill="#50C3C7" width="33.267" height="3.478"/>
	<rect x="0.019" y="45.476" fill="#02AAAD" width="36.592" height="4.288"/>
	<g>
		<rect x="4.213" y="54.862" fill="#50C3C7" width="5.56" height="5.562"/>
		<rect x="11.761" y="54.862" fill="#5A6374" width="5.561" height="5.562"/>
		<rect x="19.31" y="54.862" fill="#5A6374" width="5.56" height="5.562"/>
		<rect x="26.855" y="54.862" fill="#5A6374" width="5.562" height="5.562"/>
	</g>
	<g>
		<rect x="4.213" y="62.238" fill="#5A6374" width="5.56" height="5.562"/>
		<rect x="11.761" y="62.238" fill="#50C3C7" width="5.561" height="5.562"/>
		<rect x="19.31" y="62.238" fill="#5A6374" width="5.56" height="5.562"/>
		<rect x="26.855" y="62.238" fill="#5A6374" width="5.562" height="5.562"/>
	</g>
	<g>
		<rect x="4.213" y="69.617" fill="#50C3C7" width="5.56" height="5.562"/>
		<rect x="11.761" y="69.617" fill="#5A6374" width="5.561" height="5.562"/>
		<rect x="19.31" y="69.617" fill="#5A6374" width="5.56" height="5.562"/>
		<rect x="26.855" y="69.617" fill="#50C3C7" width="5.562" height="5.562"/>
	</g>
	<g>
		<rect x="4.213" y="76.995" fill="#5A6374" width="5.56" height="5.562"/>
		<rect x="11.761" y="76.995" fill="#5A6374" width="5.561" height="5.562"/>
		<rect x="19.31" y="76.995" fill="#5A6374" width="5.56" height="5.562"/>
		<rect x="26.855" y="76.995" fill="#5A6374" width="5.562" height="5.562"/>
	</g>
	<g>
		<rect x="4.213" y="84.372" fill="#5A6374" width="5.56" height="5.562"/>
		<rect x="11.761" y="84.372" fill="#5A6374" width="5.561" height="5.562"/>
		<rect x="19.31" y="84.372" fill="#5A6374" width="5.56" height="5.562"/>
		<rect x="26.855" y="84.372" fill="#5A6374" width="5.562" height="5.562"/>
	</g>
	<g>
		<rect x="4.213" y="91.75" fill="#5A6374" width="5.56" height="5.562"/>
		<rect x="11.761" y="91.75" fill="#5A6374" width="5.561" height="5.562"/>
		<rect x="19.31" y="91.75" fill="#50C3C7" width="5.56" height="5.562"/>
		<rect x="26.855" y="91.75" fill="#50C3C7" width="5.562" height="5.562"/>
	</g>
	<g>
		<rect x="4.213" y="99.129" fill="#5A6374" width="5.56" height="5.562"/>
		<rect x="11.761" y="99.129" fill="#5A6374" width="5.561" height="5.562"/>
		<rect x="19.31" y="99.129" fill="#5A6374" width="5.56" height="5.562"/>
		<rect x="26.855" y="99.129" fill="#5A6374" width="5.562" height="5.562"/>
	</g>
</g>
<g>
	<polygon fill="#02AAAD" points="204.364,38.562 223.715,32.65 243.062,38.562 	"/>
	<rect x="206.142" y="42.207" fill="#02AAAD" width="35.161" height="63.855"/>
	<rect x="204.636" y="104.134" fill="#50C3C7" width="38.173" height="9.633"/>
	<rect x="204.636" y="104.863" fill="#02AAAD" width="5.742" height="8.903"/>
	<rect x="207.859" y="104.863" fill="#02AAAD" width="34.949" height="8.903"/>
	<rect x="206.142" y="42.207" fill="#50C3C7" width="35.161" height="3.676"/>
	<rect x="204.384" y="38.555" fill="#02AAAD" width="38.675" height="4.532"/>
	<g>
		<rect x="208.817" y="48.477" fill="#50C3C7" width="5.876" height="5.879"/>
		<rect x="216.795" y="48.477" fill="#5A6374" width="5.877" height="5.879"/>
		<rect x="224.773" y="48.477" fill="#5A6374" width="5.876" height="5.879"/>
		<rect x="232.749" y="48.477" fill="#5A6374" width="5.879" height="5.879"/>
	</g>
	<g>
		<rect x="208.817" y="56.272" fill="#5A6374" width="5.876" height="5.879"/>
		<rect x="216.795" y="56.272" fill="#50C3C7" width="5.877" height="5.879"/>
		<rect x="224.773" y="56.272" fill="#5A6374" width="5.876" height="5.879"/>
		<rect x="232.749" y="56.272" fill="#5A6374" width="5.879" height="5.879"/>
	</g>
	<g>
		<rect x="208.817" y="64.071" fill="#50C3C7" width="5.876" height="5.879"/>
		<rect x="216.795" y="64.071" fill="#5A6374" width="5.877" height="5.879"/>
		<rect x="224.773" y="64.071" fill="#5A6374" width="5.876" height="5.879"/>
		<rect x="232.749" y="64.071" fill="#50C3C7" width="5.879" height="5.879"/>
	</g>
	<g>
		<rect x="208.817" y="71.869" fill="#5A6374" width="5.876" height="5.879"/>
		<rect x="216.795" y="71.869" fill="#5A6374" width="5.877" height="5.879"/>
		<rect x="224.773" y="71.869" fill="#5A6374" width="5.876" height="5.879"/>
		<rect x="232.749" y="71.869" fill="#5A6374" width="5.879" height="5.879"/>
	</g>
	<g>
		<rect x="208.817" y="79.666" fill="#5A6374" width="5.876" height="5.879"/>
		<rect x="216.795" y="79.666" fill="#5A6374" width="5.877" height="5.879"/>
		<rect x="224.773" y="79.666" fill="#5A6374" width="5.876" height="5.879"/>
		<rect x="232.749" y="79.666" fill="#5A6374" width="5.879" height="5.879"/>
	</g>
	<g>
		<rect x="208.817" y="87.464" fill="#5A6374" width="5.876" height="5.879"/>
		<rect x="216.795" y="87.464" fill="#5A6374" width="5.877" height="5.879"/>
		<rect x="224.773" y="87.464" fill="#50C3C7" width="5.876" height="5.879"/>
		<rect x="232.749" y="87.464" fill="#50C3C7" width="5.879" height="5.879"/>
	</g>
	<g>
		<rect x="208.817" y="95.263" fill="#5A6374" width="5.876" height="5.88"/>
		<rect x="216.795" y="95.263" fill="#5A6374" width="5.877" height="5.88"/>
		<rect x="224.773" y="95.263" fill="#5A6374" width="5.876" height="5.88"/>
		<rect x="232.749" y="95.263" fill="#5A6374" width="5.879" height="5.88"/>
	</g>
</g>
</svg>
