<?xml version="1.0" encoding="utf-8"?>
<!-- Generator: Adobe Illustrator 16.0.4, SVG Export Plug-In . SVG Version: 6.00 Build 0)  -->
<!DOCTYPE svg PUBLIC "-//W3C//DTD SVG 1.1//EN" "http://www.w3.org/Graphics/SVG/1.1/DTD/svg11.dtd">
<svg version="1.1" id="Layer_1" xmlns="http://www.w3.org/2000/svg" xmlns:xlink="http://www.w3.org/1999/xlink" x="0px" y="0px"
	 width="297.969px" height="85.854px" viewBox="0 0 297.969 85.854" enable-background="new 0 0 297.969 85.854"
	 xml:space="preserve">
<path fill="#FFFFFF" d="M77.486,54.437c0.026-0.171,0.042-0.345,0.042-0.522c0-2.025-1.641-3.665-3.666-3.665
	c-0.255,0-0.505,0.027-0.746,0.076c-0.681-1.452-1.791-2.659-3.17-3.463c-1.265-2.64-3.953-4.468-7.078-4.468
	c-2.767,0-5.192,1.435-6.593,3.594c-1.048-1.083-2.516-1.76-4.142-1.76c-2.112,0-3.952,1.139-4.954,2.834
	c-1.441-1.732-3.611-2.834-6.04-2.834c-2.923,0-5.467,1.6-6.818,3.966c-3.439,0.347-6.22,2.913-6.897,6.242H77.486z"/>
<path fill="#FFFFFF" d="M19.866,85.854c0.009-0.067,0.017-0.138,0.017-0.208c0-0.803-0.65-1.455-1.455-1.455
	c-0.101,0-0.201,0.011-0.296,0.031c-0.27-0.576-0.71-1.055-1.257-1.373c-0.503-1.049-1.57-1.773-2.811-1.773
	c-1.098,0-2.061,0.568-2.615,1.426c-0.415-0.431-0.998-0.698-1.644-0.698c-0.839,0-1.569,0.451-1.967,1.125
	c-0.572-0.688-1.433-1.125-2.396-1.125c-1.16,0-2.169,0.634-2.708,1.573C1.371,83.516,0.268,84.532,0,85.854H19.866z"/>
<path fill="#FFFFFF" d="M131.723,63.893c0.01-0.068,0.017-0.136,0.017-0.208c0-0.803-0.65-1.454-1.455-1.454
	c-0.101,0-0.2,0.011-0.296,0.03c-0.271-0.576-0.71-1.056-1.258-1.373c-0.502-1.049-1.568-1.773-2.809-1.773
	c-1.1,0-2.061,0.567-2.619,1.426c-0.414-0.431-0.996-0.699-1.643-0.699c-0.837,0-1.568,0.453-1.965,1.125
	c-0.572-0.688-1.434-1.125-2.396-1.125c-1.16,0-2.172,0.636-2.706,1.574c-1.364,0.138-2.469,1.155-2.737,2.478H131.723z"/>
<path fill="#FFFFFF" d="M105.176,18.311c0.018-0.113,0.029-0.229,0.029-0.347c0-1.335-1.082-2.417-2.417-2.417
	c-0.17,0-0.334,0.018-0.492,0.052c-0.45-0.958-1.183-1.755-2.093-2.283c-0.833-1.741-2.606-2.947-4.666-2.947
	c-1.824,0-3.425,0.945-4.349,2.37c-0.691-0.715-1.658-1.16-2.73-1.16c-1.394,0-2.606,0.752-3.267,1.868
	c-0.951-1.141-2.382-1.868-3.982-1.868c-1.929,0-3.605,1.054-4.498,2.614c-2.268,0.229-4.102,1.923-4.548,4.118H105.176z"/>
<path fill="#FFFFFF" d="M240.627,46.576c0.028-0.18,0.045-0.363,0.045-0.552c0-2.141-1.734-3.874-3.875-3.874
	c-0.27,0-0.533,0.029-0.788,0.081c-0.72-1.535-1.894-2.812-3.351-3.66c-1.337-2.79-4.179-4.723-7.481-4.723
	c-2.924,0-5.488,1.517-6.968,3.8c-1.107-1.146-2.659-1.861-4.378-1.861c-2.232,0-4.177,1.204-5.236,2.996
	c-1.523-1.831-3.816-2.996-6.384-2.996c-3.089,0-5.777,1.69-7.206,4.191c-3.636,0.367-6.574,3.08-7.29,6.598H240.627z"/>
<path fill="#FFFFFF" d="M297.951,56.571c0.011-0.072,0.018-0.144,0.018-0.22c0-0.849-0.688-1.537-1.538-1.537
	c-0.105,0-0.211,0.012-0.312,0.032c-0.287-0.609-0.75-1.116-1.329-1.452c-0.53-1.107-1.658-1.873-2.969-1.873
	c-1.162,0-2.178,0.6-2.769,1.506c-0.438-0.455-1.053-0.738-1.735-0.738c-0.885,0-1.658,0.479-2.077,1.188
	c-0.604-0.727-1.516-1.188-2.533-1.188c-1.226,0-2.295,0.672-2.859,1.664c-1.442,0.145-2.609,1.221-2.894,2.618H297.951z"/>
<path fill="#FFFFFF" d="M269.894,8.394c0.019-0.12,0.03-0.241,0.03-0.366c0-1.41-1.144-2.555-2.555-2.555
	c-0.179,0-0.353,0.02-0.52,0.055c-0.477-1.012-1.25-1.854-2.212-2.412C263.757,1.274,261.883,0,259.706,0
	c-1.929,0-3.62,0.998-4.597,2.505c-0.73-0.756-1.753-1.227-2.886-1.227c-1.473,0-2.755,0.794-3.453,1.975
	c-1.005-1.206-2.517-1.975-4.209-1.975c-2.038,0-3.811,1.114-4.754,2.763c-2.396,0.243-4.335,2.032-4.807,4.353H269.894z"/>
</svg>
