<?xml version="1.0" encoding="utf-8"?>
<!-- Generator: Adobe Illustrator 16.0.4, SVG Export Plug-In . SVG Version: 6.00 Build 0)  -->
<!DOCTYPE svg PUBLIC "-//W3C//DTD SVG 1.1//EN" "http://www.w3.org/Graphics/SVG/1.1/DTD/svg11.dtd">
<svg version="1.1" id="Layer_1" xmlns="http://www.w3.org/2000/svg" xmlns:xlink="http://www.w3.org/1999/xlink" x="0px" y="0px"
	 width="40.451px" height="40.449px" viewBox="0 0 40.451 40.449" enable-background="new 0 0 40.451 40.449" xml:space="preserve">
<g>
	<g>
		<path fill="#FBBF18" d="M40.451,20.223c0,11.168-9.055,20.227-20.225,20.227C9.056,40.449,0,31.391,0,20.223
			C0,9.054,9.056,0,20.227,0C31.396,0,40.451,9.054,40.451,20.223z"/>
		<circle fill="#F99C21" cx="20.228" cy="20.223" r="19.608"/>
		<circle fill="#FBBF18" cx="20.225" cy="20.223" r="15.443"/>
		<g>
			<path fill="#F99C21" d="M19.137,29.293c-1.018-0.095-1.955-0.346-2.798-0.762c-0.847-0.409-1.57-0.935-2.186-1.571l0.674-1.042
				c0.062-0.095,0.15-0.168,0.259-0.227c0.109-0.062,0.223-0.092,0.342-0.092c0.162,0,0.341,0.08,0.545,0.242
				c0.207,0.162,0.456,0.344,0.752,0.552c0.299,0.206,0.652,0.409,1.066,0.608c0.406,0.19,0.901,0.322,1.479,0.392l0.473-6.758
				c-0.59-0.179-1.179-0.377-1.749-0.604c-0.575-0.224-1.087-0.519-1.544-0.879c-0.451-0.362-0.816-0.815-1.094-1.366
				c-0.27-0.547-0.412-1.234-0.412-2.061c0-0.62,0.123-1.226,0.363-1.818c0.242-0.588,0.596-1.117,1.058-1.573
				c0.456-0.461,1.03-0.839,1.71-1.13c0.676-0.291,1.461-0.444,2.343-0.444l0.124-1.853c0.018-0.162,0.082-0.307,0.189-0.434
				c0.113-0.126,0.26-0.19,0.446-0.19h0.841l-0.176,2.52c0.891,0.113,1.657,0.337,2.299,0.687c0.647,0.348,1.227,0.769,1.734,1.26
				l-0.549,0.839c-0.168,0.257-0.365,0.383-0.586,0.383c-0.12,0-0.262-0.056-0.439-0.161c-0.17-0.106-0.381-0.229-0.634-0.369
				c-0.241-0.138-0.525-0.274-0.845-0.417c-0.324-0.14-0.695-0.24-1.105-0.299l-0.424,6.157c0.61,0.186,1.209,0.394,1.807,0.612
				c0.593,0.22,1.129,0.506,1.602,0.857c0.475,0.345,0.861,0.783,1.148,1.309c0.301,0.522,0.444,1.176,0.444,1.959
				c0,0.766-0.128,1.484-0.383,2.157c-0.257,0.672-0.626,1.267-1.109,1.775c-0.489,0.511-1.09,0.926-1.796,1.244
				c-0.709,0.318-1.516,0.48-2.427,0.48l-0.149,2.277c-0.014,0.157-0.082,0.305-0.199,0.428c-0.115,0.121-0.26,0.182-0.438,0.182
				h-0.841L19.137,29.293z M17.082,15.512c0,0.406,0.073,0.761,0.216,1.06c0.144,0.303,0.339,0.567,0.598,0.796
				c0.259,0.232,0.554,0.428,0.89,0.603c0.34,0.164,0.712,0.318,1.105,0.457l0.387-5.742c-0.551,0.053-1.029,0.162-1.435,0.332
				c-0.396,0.17-0.731,0.38-0.993,0.637c-0.258,0.252-0.451,0.542-0.576,0.858C17.145,14.83,17.082,15.162,17.082,15.512z
				 M24.141,23.958c0-0.421-0.076-0.785-0.234-1.092c-0.156-0.306-0.37-0.57-0.642-0.789c-0.271-0.221-0.589-0.41-0.954-0.573
				c-0.363-0.161-0.751-0.31-1.168-0.449l-0.433,6.339c0.552-0.048,1.038-0.174,1.466-0.364c0.43-0.188,0.79-0.435,1.083-0.729
				c0.288-0.296,0.513-0.643,0.661-1.038C24.07,24.867,24.141,24.434,24.141,23.958z"/>
		</g>
	</g>
</g>
</svg>
