<?xml version="1.0" encoding="utf-8"?>
<!-- Generator: Adobe Illustrator 16.0.4, SVG Export Plug-In . SVG Version: 6.00 Build 0)  -->
<!DOCTYPE svg PUBLIC "-//W3C//DTD SVG 1.1//EN" "http://www.w3.org/Graphics/SVG/1.1/DTD/svg11.dtd">
<svg version="1.1" id="Layer_1" xmlns="http://www.w3.org/2000/svg" xmlns:xlink="http://www.w3.org/1999/xlink" x="0px" y="0px"
	 width="130.029px" height="130.024px" viewBox="0 0 130.029 130.024" enable-background="new 0 0 130.029 130.024"
	 xml:space="preserve">
<g>
	<path fill="#DCE4E6" d="M65.019,130.024c35.849,0,65.011-29.16,65.011-65.009C130.029,29.171,100.867,0,65.019,0V130.024z"/>
	<path fill="#FFFFFF" d="M65.019,0C29.17,0,0,29.171,0,65.016c0,35.849,29.17,65.009,65.019,65.009V0z"/>
	<g>
		<path fill="#9FB33A" d="M127.214,82.687c-0.857,0.021-1.97,0.424-1.987,0.717c-0.017,0.296-1.195,0.822-1.586,0.979
			c-0.39,0.157-1.147,1.366-1.315,1.763c-0.162,0.396-1.127,0.275-1.484,0.438c-0.354,0.156-1.089,0.748-1.093,1.104
			c-0.001,0.351-0.202,0.314-0.441-0.09c0,0,0,0-0.469,0.493c-0.555,0.616-0.555,0.616-0.555,0.616c-0.318,1-1.376,2.26-1.738,2.367
			c-0.365,0.102-0.428,1.857-0.428,2.56c0,0.712,0.273,1.583,0.61,1.941c0,0,0,0,0.074,0.561c0.121,1.118,0.121,1.118,0.121,1.118
			c-0.195,0.863,0.46,1.635,0.652,1.787c0.191,0.146,1.798-0.288,2.413-0.439c0.256-0.058,0.576-0.202,0.877-0.354
			c2.874-4.809,5.131-10.022,6.691-15.528C127.438,82.697,127.321,82.682,127.214,82.687z"/>
		<path fill="#9FB33A" d="M19.865,84.352c-0.09,0.175,1.069,1.371,1.523,1.773c0.449,0.413,1.404,2.359,1.602,3.002
			c0.194,0.642,0.079,1.687,0.015,1.935c-0.061,0.247,0.219,0.786,0.266,1.011c0.039,0.228-0.402,2.141-0.231,2.91
			c0.168,0.77-0.899,3.17-0.877,4.36c0.027,1.191,0.566,2.744,0.782,2.629c0.218-0.115,0.293,1.085-0.071,1.228
			c-0.365,0.146-0.785,1.094-0.583,1.144c0.205,0.05-0.014,0.984,0.044,1.36c0.053,0.375,0.37,2.851,0.438,3.464
			c0.071,0.617,0.95,2.124,1.135,2.632c0.187,0.513,0.374,1.477,0.445,1.623c0.07,0.149,0.162,0.299,0.17,0.307
			c0.02,0.005,0.729,0.268,0.931,0.424c0.212,0.154,1.601,0.06,2.058-0.037c0.453-0.094,0.037-0.51-0.168-0.732
			c-0.205-0.23-0.388-1.326-0.624-1.439c-0.234-0.107-0.335-1.508-0.127-1.816c0.208-0.312,1.039-0.806,1.132-1.065
			c0.085-0.26,0.111-1.479-0.109-1.646c-0.226-0.165,0.064-1.646-0.104-2.382c-0.168-0.733,1.275-1.402,1.361-1.984
			c0.081-0.583,1.646-1.209,2-1.499c0.354-0.294,0.661-1.96,0.494-2.324c-0.172-0.355,0.577-0.646,0.911-0.646
			c0.332,0,0.706-0.24,0.836-0.24c0.126-0.003,0.521-0.741,0.735-0.909c0.213-0.17,0.655-1.934,1.041-2.223
			c0.391-0.289,0.711-1.354,0.711-1.667c0-0.311,0.594-1.24,0.789-1.52c0.192-0.28,1.654-0.948,1.915-1.053
			c0.261-0.109,0.656-2.453,0.759-3.295c0.1-0.844,0.539-1.967,0.57-2.241c0.029-0.28,0.496-0.516,0.583-0.604
			c0.089-0.089,0.435-1.16,0.66-1.41c0.224-0.244,1.031-1.266,1.051-1.497c0.018-0.229,0.139-0.812,0.274-1.304c0,0,0,0-0.006-0.57
			c0.007-0.916,0.007-0.916,0.007-0.916c-0.255-0.705-1.038-1.589-1.239-1.393c-0.197,0.192-1.103-0.626-1.561-0.801
			c-0.464-0.169-1.613-0.312-1.903-0.312c-0.291,0-1.296-0.822-1.745-0.968c-0.451-0.137-1.599-0.358-1.81-0.492
			c-0.211-0.136-0.492-1.845-1.417-2.4c-0.927-0.561-2.547-1.863-2.727-2.345c-0.178-0.475-1.954-1.479-2.508-1.782
			c-0.544-0.304-1.378-0.375-1.479-0.265c-0.111,0.104-0.793-0.927-1.143-1.221c-0.357-0.287-1.421-0.531-1.468-0.27
			c-0.052,0.262-0.755,0.126-0.923-0.1c-0.163-0.219-0.713,0.092-0.972,0.176c-0.254,0.081-1.141,1.432-1.544,1.757
			c-0.412,0.321-0.893-0.299-1.159-0.417c-0.27-0.115-1.287,0.202-1.567,0.4c-0.277,0.196-0.922-1.431-0.771-2.18
			c0.147-0.748-0.67-2.237-1.305-2.274c-0.628-0.036-0.828-1.603-0.703-2.18c0.128-0.576-1.142-0.938-1.458-0.977
			c-0.325-0.043-1.113,0.771-1.245,1.161c-0.138,0.389-3.016-0.528-2.673-2.258c0.334-1.723,1.697-3.508,2.037-3.72
			c0.339-0.207,2.189-0.313,2.597-0.083c0.41,0.239,0.779-0.003,0.849-0.105c0.068-0.107,1.577,0.018,2.029,0.201
			c0.444,0.182,1.095,1.922,1.558,2.136c0.472,0.22,0.643-1.123,0.715-1.449c0.077-0.327-0.227-1.155-0.338-1.388
			c-0.115-0.232,0.747-2.345,1.457-2.704c0.697-0.361,1.444-1.534,1.389-1.743c-0.065-0.206,0.562-0.369,0.728-0.461
			c0.17-0.081-0.025-1.792,0.252-2.164c0.281-0.368,1.603-1.151,2.022-1.327c0.416-0.178,0.732-1.256,0.583-1.442
			c-0.152-0.193,1.08-1.243,1.723-1.449c0.641-0.194,1.194,0.371,1.037,0.458c0.128-0.07,1.012-0.528,1.39-0.775
			c0.438-0.292,0.005-1.092-0.279-1.329c-0.28-0.229-0.111-1.157,0.228-1.243c0.344-0.082,0.642-0.885,0.55-1.056
			c-0.09-0.177,1.412,0.137,1.985-0.288c0.563-0.423,0.162,1.019-0.258,1.6c-0.412,0.581,0.308,1.131,0.577,1.021
			c0.268-0.113,0.554,0.307,0.61,0.473c0.053,0.158,0.632-0.17,1.009-0.007c0.381,0.165,0.604-0.517,0.636-0.832
			c0.025-0.316-0.908-0.972-1.054-1.349c-0.144-0.377-0.205-2.58-0.225-3.034c-0.022-0.45-0.627-1.185-0.822-1.052
			c-0.193,0.124-0.592-1.173-0.906-1.455c-0.317-0.28-0.387-0.903-0.374-1.112c0.016-0.21-1.066-1.339-1.326-1.861
			c-0.258-0.522-0.622-0.417-0.646-0.179c-0.028,0.24-0.777,0.272-1.086,0.244c-0.311-0.028-0.563-1.222-0.563-1.672
			c0-0.448-1.391-0.526-1.619-0.892c-0.229-0.358-1.134-0.189-1.281-0.44s-0.952-0.483-1.105-0.39
			c-0.167,0.095-0.087,3.328-0.24,4.201c-0.155,0.872-0.892,1.638-1.165,1.617c-0.266-0.019-0.107,0.622,0.08,0.564
			c0.19-0.06-0.524,0.953-0.616,1.615c-0.097,0.659-0.769-0.031-0.877-0.631c-0.11-0.602-0.766-1.414-0.889-1.207
			c-0.128,0.204-0.579-0.246-0.777-0.118c-0.194,0.129-1.437-0.722-1.938-0.997c-0.5-0.264-0.784-1.806-1.068-1.94
			c-0.291-0.139-0.045-0.321-0.056-0.556c-0.01-0.231,0.97-1.129,1.267-1.482c0.294-0.358,1.369-1.756,1.796-2.055
			c0.43-0.304,0.762-1.103,0.688-1.253c-0.075-0.143,1.825-0.738,2.339-0.915c0.514-0.176,0.959-1.609,1.028-2.021
			c0.071-0.415-0.322-1.192-0.559-1.296c-0.243-0.101,0.715-0.137,1.031,0.022c0.32,0.155,1.299-0.29,1.687-0.084
			c0.382,0.202,1.166,0.668,1.731,1.023c0,0,0,0-0.122,1.054c-0.229,1.784-0.229,1.784-0.229,1.784
			c-1.498,0.621-1.929,1.691-1.403,1.67c0.524-0.025,2.912,1.033,3.59,1.518c0.674,0.483,0.886-0.7,1.085-1.094
			c0.2-0.389,0.135-1.536-0.025-1.761c-0.163-0.23,0.781-0.15,1.044,0.104c0.267,0.254,0.578-0.261,0.781-0.351
			c0.202-0.093,0.303-1.073,0.415-1.27c0.106-0.202-0.448-0.402-0.464-0.646c-0.019-0.249-1.092-0.713-1.438-0.881
			c-0.354-0.166-0.435-0.907-0.262-1.035c0.171-0.13-0.119-1.071-0.293-1.382c-0.168-0.313-1.292-0.567-1.667-0.567
			c-0.372,0-0.758-0.866-0.975-0.992c-0.215-0.125-1.658-0.282-2.008-0.179c-0.357,0.104-1.012-1.021-1.612-0.678
			c-0.602,0.343-1.219-0.401-1.491-0.552c-0.273-0.147-1.68,1.362-1.669,2.424c0.016,1.066,0.55,2.093,0.77,2.122
			c0.221,0.029-0.051,0.988-0.297,1.264c-0.244,0.271-0.836-0.289-0.609-0.53c0.22-0.24-0.613-1.354-0.9-1.804
			c-0.205-0.328-0.935-0.619-1.431-0.817c-0.292,0.316-0.575,0.638-0.855,0.959c0.108,0.386,0.239,0.889,0.112,1.27
			c-0.207,0.647-0.75,0.747-0.781,0.467c-0.016-0.125-0.29-0.219-0.611-0.262c-7.877,9.442-13.119,21.15-14.619,33.98
			c0.314,0.36,0.67,0.783,0.764,1.089c0.18,0.568,1.172,0.947,1.359,1.062c0.184,0.112,0.248-1.094,0.114-1.408
			c-0.128-0.313,0.243-0.502,0.233-0.271c-0.007,0.232,0.936,1.292,1.244,1.68c0.311,0.383,0.631,2.863,0.928,3.395
			c0.296,0.532,3.155,1.636,4.081,1.825c0.921,0.198,2.081,1.228,2.263,1.525c0.179,0.298,1.401,0.448,1.666,0.565
			c0.265,0.123,0.892,0.952,1.152,1.125c0.26,0.176,0.467,0.666,0.467,0.799c0,0.131,1.616,0.743,2.006,1.173
			c0.393,0.434,1.041,0.315,1.164,0.134c0.122-0.182,0.44,0.858,0.61,1.219c0.161,0.359,0.203,1.243,0.076,1.385
			c-0.126,0.139-0.359,1.764-0.634,2.089c-0.276,0.327-0.848,2.69-0.726,3.153c0.125,0.47,0.884,1.433,1.212,1.578
			c0.325,0.142,0.187,0.647-0.068,0.682c-0.26,0.033-0.14,2.29,0.468,2.625C19.442,83.179,19.953,84.181,19.865,84.352z"/>
		<path fill="#9FB33A" d="M27.517,44.753l0.004-0.003C27.499,44.761,27.496,44.765,27.517,44.753z"/>
		<path fill="#9FB33A" d="M23.073,17.332c0.778-0.13,2.072-0.347,2.163-0.563c0.062-0.181,0.071-0.714-0.074-0.9
			c0.123,0.007,0.268,0.012,0.375,0.012c0.296,0,0.789-1.619,1.099-1.997c0.314-0.378,2.092-0.936,2.517-1.192
			c0.426-0.258,1.351-1.15,1.708-1.253c0.356-0.108,0.876-0.937,0.797-1.107c-0.078-0.164,1.204-0.942,1.692-1.151
			c0.485-0.206,0.738-0.777,0.558-0.798c-0.117-0.019-2.834,1.402-5.32,2.813c-2.839,1.927-5.506,4.082-8.001,6.422
			C21.363,17.561,22.564,17.418,23.073,17.332z"/>
		<path fill="#9FB33A" d="M70.093,98.252c0.831-0.492,2.247-2.581,2.711-3.022c0.464-0.438,0.802-2.021,0.901-2.367
			c0.093-0.346,0.801-0.907,1.065-0.981c0.262-0.073,1.105-3.581,1.845-4.345c0.74-0.767,1.609-4.473,1.519-5.808
			c-0.096-1.327,0.474-3.869,0.647-4.479c0.18-0.609,1.106-1.695,1.395-1.92c0.284-0.228,2.072-2.869,2.65-3.818
			c0.57-0.946,1.123-3.029,1.011-3.517c-0.107-0.489-1.353-0.829-1.585-0.588s-1.403,0.438-1.778,0.438
			c-0.377,0-1.234-2.006-1.767-2.418c-0.53-0.411-1.012-2.711-1.318-3.144c-0.307-0.437-1.165-1.538-1.434-1.79
			c-0.267-0.251-0.315-1.471-0.376-1.806c-0.058-0.332,0.52,0.222,0.618,0.704c0.102,0.486,1.477,2.444,1.902,3.104
			c0.427,0.66,1.551,2.757,1.839,3.418c0.286,0.652,2.783,0.322,3.595-0.059c0.812-0.388,1.823-1.034,1.861-1.26
			c0.035-0.228,1.331-0.821,1.688-1.107c0.358-0.287,0.678-1.79,0.911-2.031c0.234-0.245-0.188-1.678-0.459-2.104
			c-0.268-0.428-1.565-0.768-1.823-0.602c-0.267,0.169-0.824-0.961-1.022-1.373c-0.198-0.42-1.191-0.926-1.3-1.211
			c-0.103-0.288,0.27-0.733,0.426-0.83c0.157-0.1,1.985,1.184,2.513,1.822c0.521,0.636,1.122,1.809,1.227,2.016
			c0.093,0.203,1.54,0.308,1.86,0.072c0.319-0.238,0.691-0.176,0.819,0.131c0,0,0,0,0.453-0.08c1.583-0.246,1.583-0.246,1.583-0.246
			c0.747,0.812,0.966,1.515,0.948,1.677c-0.017,0.155,0.457,0.816,0.766,0.886c0.307,0.072,0.531,1.109,0.627,1.365
			c0.09,0.257,0.994,1.807,1.179,2.46c0.187,0.654,0.956,1.925,1.141,2.268c0.18,0.343,0.334,1.329,0.334,1.599
			s0.577,0.802,0.94,0.775c0.356-0.023,1.085-2.293,1.254-3.137c0.166-0.845,0.751-1.541,0.915-1.541
			c0.166,0,0.298-0.474,0.298-0.654c0-0.178,0.917-0.159,1.001-0.39c0.076-0.23,0.349-1.729,0.677-1.956
			c0.328-0.229,1.488-0.989,1.898-1.131c0.406-0.143,1.448,0.757,1.681,1.176c0.23,0.416,0.442,1.486,0.354,1.657
			c-0.089,0.176,0.547,1.097,1.106,1.081c0.55-0.019,0.726,0.701,0.74,0.961c0.025,0.261,0.754,1.004,0.899,1.335
			c0.144,0.332,0.101,1.237,0.005,1.444c-0.102,0.204-0.034,1.395,0.074,1.728c0.106,0.33,1.811,2.058,2.449,2.585
			c0.64,0.52,0.94-1.07,0.613-1.566c-0.326-0.495-1.439-1.649-1.702-1.99c-0.261-0.348-0.307-1.729-0.207-2.114
			c0.093-0.388,0.972,0.214,1.337,0.492c0.364,0.28,0.842,0.903,0.855,1.112c0.014,0.204,2.298-1.074,2.377-2.464
			c0.082-1.392,0.843-2.957,0.917-3.321c0.076-0.368-0.226-0.869-0.418-0.884c-0.194-0.019,0.338-1.061,0.98-1.045
			c0.643,0.021,2.184-1.699,2.549-2.379c0.364-0.683,1.1-1.244,1.184-1.33c0.087-0.079,0.6-1.695,0.688-2.361
			c0.088-0.667-0.376-1.709-0.431-2.055c-0.056-0.342-0.606-1.138-0.754-1.389c-0.139-0.246-0.273-1.183-0.187-1.358
			c0.084-0.168,0.664-0.356,0.724-0.509c0.062-0.161,0.725-0.865,0.676-1.175c-0.049-0.312,0.411,0.401,0.712,0.66
			c0.302,0.257,0.63,1.913,1.008,2.096c0.369,0.182,1.889-1.756,1.701-3.008c-0.185-1.253,0.441-2.854,0.806-2.998
			c0.278-0.107,0.99-1.12,1.476-1.846c-3.337-9.637-8.872-18.248-16.012-25.238c-0.085,0.008-0.169,0.01-0.248-0.006
			c-0.557-0.119-0.557-0.119-0.557-0.119c-0.932-0.199-1.475-1.197-1.315-1.426c0.053-0.075,0.042-0.241-0.004-0.438
			c-0.523-0.47-1.053-0.93-1.595-1.382c-0.441-0.013-0.904,0-1.176-0.013c-0.561-0.021-1.771-0.419-1.987-0.636
			c-0.218-0.214-0.95,0.194-0.991,0.597c-0.05,0.405-1.322,0.591-1.439,0.898c-0.129,0.306-0.781,0.328-0.908,0.154
			c-0.127-0.172-1.307,0.417-1.896,0.503c-0.587,0.082-1.678,0.559-1.942,0.677c-0.262,0.113-0.886,0.724-0.986,0.975
			c-0.097,0.254-0.854,0.676-1.097,0.772c-0.243,0.096-0.191,1.193,0.12,1.349c0.311,0.15-0.581-0.132-0.972-0.338
			c-0.399-0.196-0.833,0.47-0.954,0.701c-0.126,0.226-0.485-0.14-0.472-0.466c0.013-0.329-0.972-0.593-1.101-0.332
			c-0.133,0.262-0.815-0.085-1.1-0.234c-0.284-0.15-1.505,1.127-1.959,1.584c-0.454,0.459-2.625,0.814-3.032,0.642
			c-0.405-0.169-0.805,0.961-0.458,1.038c0.344,0.067-0.882-0.059-1.554,0.006c-0.674,0.065-2.637,0.851-3.101,1.197
			c-0.474,0.351-0.848-0.077-0.848-0.345s-0.744-0.516-0.968-0.591c-0.221-0.075-0.656,1.467-1.042,1.763
			c-0.392,0.301-0.858-1.202-1.773-1.449c-0.914-0.247-2.343-1.129-2.753-1.234c-0.402-0.108-1.22-0.962-1.449-1.208
			c-0.23-0.249-1.4-0.454-1.773-0.454c-0.377,0-1.588,0.697-1.911,0.968c-0.333,0.275-0.816,0.222-0.979,0.319
			c-0.163,0.098-1.533,1.439-2.061,1.858c-0.533,0.419-1.464,2.228-1.761,2.658c-0.309,0.431-0.741,0.512-0.919,0.523
			c-0.179,0.01-0.323,0.492-0.323,0.667c0,0.18-1.573,0.998-1.736,1.712c-0.167,0.714,0.154,2.345,0.154,2.927
			c0,0.579,0.583,1.729,1.019,1.748c0.435,0.02,0.208,0.985,0.093,1.255c-0.113,0.272,0.276,0.566,0.261,0.799
			c-0.008,0.229-1.103,0.553-1.437,0.684c-0.343,0.123-0.887,0.889-0.959,1.17c-0.061,0.25-1.109,0.426-1.457,0.758
			c0.087-0.238,0.202-0.57,0.299-0.758c0.199-0.381-0.076-1.047-0.242-1.184c-0.163-0.139-0.242-2.028-0.508-2.432
			c-0.265-0.408-0.927-1.094-1.09-1.229c-0.161-0.13,0.114-0.629,0.209-0.841c0.097-0.209-0.881-0.331-1.149-0.175
			c-0.268,0.154-0.412,2.025-0.523,2.537c-0.108,0.513,0.483,1.301,0.646,1.335c0.157,0.04,0.116,0.963-0.225,0.991
			c-0.346,0.032-0.658,1.378-0.482,1.684c0.177,0.31-0.246,0.911-0.448,1.053c-0.204,0.134,1.312,0.058,2.011,0.039
			c0.689-0.017,1.232,0.293,1.16,0.349c-0.074,0.057-1.326,0.245-1.551,0.541c-0.221,0.296-1.074,0.867-1.239,1.099
			c-0.164,0.226,0.28,0.731,0.643,0.708c0.359-0.021,0.771,1.246,1.051,1.48c0.279,0.235,0.177,0.891,0.056,1.071
			c-0.128,0.18-1.821-0.121-2.463,0.037c-0.645,0.158-1.458,1.521-1.512,2.032c-0.06,0.516,0.102,1.992,0.188,2.398
			c0.08,0.406,1.429,0.664,1.698,0.863c0.279,0.196,1.566,0.006,1.837,0.129c0.261,0.128,1.134-1.306,1.307-1.971
			c0.166-0.668,1.543-1.886,1.83-2.341c0.284-0.452,1.766-0.397,2.129-0.638c0.366-0.23,0.161,1.125,0.337,1.87
			c0.173,0.749,1.592,0.655,1.383-0.047c-0.207-0.698,0.142-1.004,0.198-0.75c0.062,0.25,1.422,0.808,1.681,1.201
			c0.256,0.397,0.183,1.232-0.119,1.224c-0.304-0.015-0.314,0.917,0.008,1.019c0.317,0.098,0.745-1.047,1.089-1.217
			c0.344-0.173,0.623-0.885,0.459-0.939c-0.152-0.056,0.291-0.694,0.488-0.484c0.192,0.21-0.728-1.391-1.31-1.976
			c-0.578-0.581-0.17-0.322,0.913,0.578c0,0,0,0,0.749,1.05c0.145,0.188,0.336,0.761,0.466,0.971
			c0.174,0.311,0.174,0.311,0.174,0.311c0.147,0.367,0.276,1.37,0.276,1.643c0,0.269,0.588,0.801,0.941,0.777
			c0.355-0.026,0.626,0.17,0.555,0.183c-0.076,0.013,0.232,0.707,0.59,0.726c0.352,0.013,0.504-0.898,0.146-0.922
			c-0.354-0.019-0.299-1.34-0.347-1.911c-0.038-0.575,0.258-1.046,0.38-1.046c0.124,0-0.015,1.182-0.003,1.452
			c0.003,0.272,0.153,0.807,0.319,1.191c0,0,0,0,0.37,0.277c0.819,0.631,0.819,0.631,0.819,0.631
			c1.178-0.349,2.757-0.081,2.696,0.161c-0.066,0.241,0.87,0.299,0.927-0.091c0.055-0.385,0.1,0.011,0.1,0.282
			c0,0.263-0.773,1.313-0.9,1.801c-0.133,0.482-2.848,0.154-4.017,0.063c-1.169-0.085-2.895,0.312-3.027,0.661
			c-0.13,0.351-1.955-0.803-2.791-1.153c-0.838-0.354-1.495-1.631-1.667-1.796c-0.173-0.168,0.145-0.579,0.063-0.83
			c-0.08-0.254-1.989-0.309-2.543-0.1c-0.558,0.204-3.419,0.506-4.1,0.802c-0.677,0.306-1.697-0.017-2.015-0.073
			c-0.318-0.055-1.076,0.881-1.459,1.049c-0.389,0.17-0.875,1.494-1.086,2.948c0,0,0,0-0.521,1.015
			c-0.336,0.646-0.336,0.646-0.336,0.646c-0.946,0.72-1.992,3.122-2.301,3.604c-0.307,0.48-0.552,3.936-0.552,5.1
			s1.013,3.627,1.302,4.303c0.287,0.681,2.04,2.183,2.625,2.544c0.587,0.352,2.493,0.4,3.119,0.398
			c0.619-0.003,1.332-0.595,1.573-1.317c0,0,0,0,0.917,0.092c0.42,0.042,0.42,0.042,0.42,0.042c0.021,0.513,1.373,0.921,1.705,1.102
			c0.329,0.181,1.22,0.043,1.484-0.036c0.266-0.073,0.562,2.313,0.367,3.003c-0.188,0.69,0.473,3.111,0.664,3.839
			c0.197,0.73,1.024,2.723,1.112,3.439c0.077,0.714-0.49,3.092-0.583,3.926c-0.094,0.836,1.036,3.164,1.338,3.966
			c0.294,0.801,0.536,2.525,0.536,2.923c0,0.4,1.24,2.81,1.521,3.799C66.154,98.497,69.261,98.739,70.093,98.252z"/>
		<path fill="#9FB33A" d="M123.69,68.733c0.083,0.18,0.861-0.443,1.33-0.514c0.469-0.073,0.766-1.332,0.399-1.419
			c-0.371-0.102-0.837-1.065-1.1-1.185c-0.263-0.116-0.779,0.415-0.759,0.797c0.021,0.381-0.852,0.537-1.019,0.854
			c-0.162,0.316-0.153,0.547,0.028,0.515C122.744,67.751,123.61,68.56,123.69,68.733z"/>
		<path fill="#9FB33A" d="M122.73,75.563c0.235-0.088-0.025-1.329-0.513-1.432c-0.487-0.102-1.832,1.635-1.579,2.636
			c0.258,0.997,0.539,0.936,0.678,0.726c0.141-0.21,0.943,0.134,1.18,0.217c0.236,0.076,0.236-0.165,0-0.531
			C122.26,76.806,122.499,75.647,122.73,75.563z"/>
		<path fill="#9FB33A" d="M120.07,74.351c0.057-0.441,0.141-1.83,0.22-2.107c0.071-0.275-0.756-1.07-1.167-1.215
			c-0.406-0.142-1.718,2.703-2.657,3.206c-0.944,0.508-1.282,2.237-1.038,2.638c0.253,0.399,2.216,0.611,2.557,0.914
			c0.348,0.299,0.726-0.049,0.93-0.1c0.209-0.05,0.143-0.183,0.064-0.235c-0.08-0.047,0.684-0.854,0.796-1.368
			C119.881,75.575,120.013,74.792,120.07,74.351z"/>
		<path fill="#9FB33A" d="M114.731,79.084c-0.738-0.274-1.601,0.158-1.668,0.443c-0.075,0.282,2.834,0.743,3.8,1.007
			c0.961,0.263,1.562,0.346,1.344,0.184C117.984,80.554,115.467,79.365,114.731,79.084z"/>
		<path fill="#9FB33A" d="M120.633,60.169c0.234-0.324-0.325-1.845-0.606-1.5c-0.279,0.343-0.075,1.229,0.013,1.542
			C120.127,60.515,120.398,60.496,120.633,60.169z"/>
		<path fill="#9FB33A" d="M122.386,63.436c0.169-0.393-0.209-0.825-0.838-0.958c-0.63-0.129-0.537,1.761-0.259,2.005
			C121.56,64.718,122.214,63.833,122.386,63.436z"/>
		<path fill="#9FB33A" d="M125.658,75.159c0.752,0.528,2.433,0.284,2.484-0.733C127.4,73.939,125.594,74.022,125.658,75.159z"/>
		<path fill="#9FB33A" d="M125.252,51.961c-0.312,0.218-0.478,0.776-0.381,1c-0.043-0.001-0.085-0.003-0.127-0.003
			c-0.253,0-0.281,0.991-0.016,1.162c0.257,0.168,0.896-0.774,1.227-0.998c0.332-0.227,0.998-0.365,1.097-0.292
			c0.104,0.073,0.686-0.104,1.302-0.388c0.109-0.052,0.235-0.213,0.365-0.443c-0.146-0.725-0.321-1.438-0.493-2.155
			c-0.314,0.234-0.669,0.481-0.832,0.627C127.061,50.771,125.661,51.679,125.252,51.961z"/>
		<path fill="#9FB33A" d="M108.067,71.918c0,0,0.007,0,0.009,0.005C107.945,71.826,107.929,71.815,108.067,71.918z"/>
		<path fill="#9FB33A" d="M112.753,76.279c-0.272-0.615-1.174-1.655-2.002-2.313c0,0,0,0-0.315-0.516
			c-0.343-0.569-0.343-0.569-0.343-0.569c-0.31-0.625-1.241-1.104-1.319-1.29c-0.081-0.183-0.379,0.542-0.697,0.332
			c0.168,0.115,0.515,0.362,1.005,0.712c0.875,0.624,2.559,4.858,2.942,5.152C112.401,78.088,113.023,76.898,112.753,76.279z"/>
		<path fill="#9FB33A" d="M99.328,69.439c-0.233,0.481,1.248,1.497,1.359,1.262c0.123-0.23-0.186-1.403-0.451-1.665
			C99.975,68.78,99.565,68.964,99.328,69.439z"/>
		<path fill="#9FB33A" d="M79.687,92.059c0.059,0.503,1.08,0.901,1.373,0.82c0.305-0.082,1.127-1.605,1.24-2.04
			c0.117-0.444,0.209-1.384,0.209-1.607c0-0.222,0.137-0.727,0.253-0.79c0.109-0.058,0.299-0.578,0.415-1.146
			c0.113-0.578-0.615-3.247-0.636-3.716c-0.018-0.471-0.547,0.243-0.682,0.717c-0.143,0.474-1.471,1.442-1.767,1.845
			c-0.292,0.401-0.62,1.767-0.505,2.003c0.112,0.235-0.115,1.164-0.25,1.424C79.21,89.824,79.632,91.552,79.687,92.059z"/>
		<path fill="#9FB33A" d="M31.755,110.54c0.295,0,0.585,0,0.894,0C32.808,109.574,31.707,109.733,31.755,110.54z"/>
		<path fill="#9FB33A" d="M55.579,9.945c-0.375,0.047-1.344-0.148-1.512-0.328c-0.166-0.176-1.62-0.334-2.038-0.157
			c-0.419,0.176-0.132-1.022,0.451-1.151c0.584-0.131,0.088-0.957-0.531-0.959c-0.623-0.004-2.154-0.229-2.515-0.148
			c-0.362,0.078-1.065-0.252-1.322-0.289c-0.258-0.037-2.098,0.55-2.969,0.508c-0.872-0.038-3.012,0.049-3.472,0.18
			c-0.471,0.121-0.807,1.027-0.738,1.348c0.067,0.324-2.07,0.318-2.74,0.328c-0.676,0.008-4.258,0.771-5.195,1.286
			c-0.936,0.514-1.667,1.829-1.356,1.856c0.309,0.025-0.521,0.771-1.023,0.946c-0.504,0.17-1.703,0.248-1.987,0.531
			c-0.28,0.281,0.301,0.475,0.413,0.666c0.111,0.187,0.445-0.166,0.766,0.018c0.313,0.178,1.36,0.262,1.634,0.368
			c0.281,0.109-0.885,0.331-1.432,0.372c-0.548,0.037-0.424,1.113,0.021,1.261c0.447,0.15,1.599,0.308,1.714,0.122
			c0.118-0.187,1.366,0.203,1.93,0.271c0.558,0.059,0.989,1.468,1.159,1.774c0.174,0.304,0.209,1.376,0.167,1.687
			c-0.038,0.31,0.994,0.876,1.181,0.678c0.183-0.196,0.131,0.486-0.281,0.449c-0.413-0.035-0.144,1.157,0.367,1.33
			c0.506,0.168,0.16,0.902-0.132,1.126c-0.298,0.22-0.137,0.921-0.438,1.174c-0.3,0.249,1.069,2.619,1.062,3.841
			c-0.009,1.217,0.75,2.214,1.041,2.214c0.293,0,1.296,0.245,1.426,0.506c0.134,0.26,0.616-0.18,0.809-0.381
			c0.187-0.198,0.598-0.787,0.903-1.303c0.309-0.517,0.996-2.961,1.088-3.223c0.093-0.265,1.241-0.099,1.503-0.232
			c0.261-0.137,1.014-0.728,1.228-0.904c0.212-0.177,1.85-0.869,2.301-1.193c0.444-0.319,1.189-1.708,1.536-2.003
			c0.349-0.299-0.178-0.211-0.617-0.497c-0.43-0.283-0.241-0.634-0.113-0.767c0.123-0.137,1.442,0.219,1.9,0.395
			c0.457,0.181,1.321-0.448,0.992-0.691c-0.339-0.24-0.16-0.234,0-0.132c0.16,0.1,0.329-0.802,0.157-0.973
			c-0.177-0.173,1.335-1.273,1.067-2.316c-0.262-1.041,0.412-2.11,0.818-2.122c0.408-0.013,0.289-1.177-0.198-1.286
			c-0.482-0.106-0.028-0.214,0.154-0.381c0.182-0.163,0.41-1.205,0.306-1.403c-0.11-0.202,0.743-0.426,0.89-0.664
			c0.154-0.234,1.126-0.699,1.473-0.777C55.763,10.815,55.95,9.904,55.579,9.945z"/>
		<path fill="#9FB33A" d="M64.048,10.797c-0.462-0.158-1.401,0.354-1.284,0.646c0.123,0.294-0.764-0.373-1.383-0.055
			c-0.617,0.324-0.788,1.406-0.504,1.549c0.284,0.14,0.492,1.004,0.496,1.168c0.012,0.169,1.204,0.047,1.509-0.2
			c0.302-0.254,0.261,0.871-0.036,1.175c-0.303,0.305,0.106,0.915,0.439,0.965c0.332,0.046,0.781,0.83,1.126,0.821
			c0.341-0.008,0.924-1.32,1.056-1.815c0.134-0.488,1.27-0.103,1.792,0.056c0.518,0.153,0.71-1.81,0.145-2.107
			c-0.56-0.291-1.266-0.146-1.5-0.371c-0.23-0.226-0.631-0.437-0.893-0.476C64.752,12.114,64.506,10.953,64.048,10.797z"/>
		<path fill="#9FB33A" d="M68.59,11.736c0.915,0.129,1.947-0.625,2.17-0.84c0.227-0.21-2.541-0.776-3.594-0.81
			c-1.054-0.032-1.903,0.111-1.888,0.321C65.294,10.611,67.668,11.603,68.59,11.736z"/>
		<path fill="#9FB33A" d="M51.854,36.547c-0.242-0.1-0.377,0.806-0.321,1.149c0.056,0.346,0.903,0.316,1.263,0.254
			c0.358-0.059,0.639-0.352,0.626-0.652c-0.021-0.295-0.529-1.648-0.733-1.648C52.484,35.649,52.096,36.642,51.854,36.547z"/>
		<path fill="#9FB33A" d="M54.57,25.996c-0.189-0.335-1.627-0.293-1.98-0.315c-0.348-0.02-1.424-0.378-1.629-0.606
			c-0.198-0.229-0.358,0.885-0.685,1.03c-0.332,0.145,0.159,0.356,0.296,0.237c0.132-0.117-0.009,0.574-0.156,0.811
			c-0.147,0.238,0.956,0.404,1.083,0.764c0.123,0.358,0.579,0.591,1.016,0.523c0.433-0.073,1.3-0.521,1.605-0.551
			C54.426,27.856,54.761,26.327,54.57,25.996z"/>
		<path fill="#9FB33A" d="M84.788,17.754c0.494-0.496,2.527-1.166,2.759-1.68c0.229-0.51-0.143-0.929-0.348-0.929
			c-0.207,0-0.463,0.257-0.508,0.338c-0.051,0.086-2.385,0.635-3.098,0.979c-0.723,0.345-1.551,0.877-1.852,1.184
			c-0.303,0.304-0.795,2.617-0.972,2.879c-0.171,0.261,0.775,1.203,1.199,1.467c0.42,0.256,0.998,0.121,1.16,0.071
			c0.162-0.052-0.218-1.668-0.435-2.231C82.471,19.271,84.295,18.256,84.788,17.754z"/>
		<path fill="#9FB33A" d="M82.29,11.726c0.77,0.762,1.191-0.34,2.034-0.231C84.31,9.945,82.214,10.477,82.29,11.726z"/>
		<path fill="#9FB33A" d="M97.222,12.013c-0.022,0.286,2.125,0.517,2.753,0.405c0.627-0.108-0.131-1.089-1.05-1.03
			C98.012,11.447,97.246,11.729,97.222,12.013z"/>
		<path fill="#9FB33A" d="M19.438,27.943c-0.228,0.211-0.029,1.265,0.401,1.295c0.428,0.03,1.115-1.591,1.642-1.265
			c0.526,0.325,0.884,0.453,0.797,0.28c-0.089-0.17-1.587-0.829-1.774-0.949C20.32,27.192,19.669,27.741,19.438,27.943z"/>
		<path fill="#9FB33A" d="M24.933,63.616c0,0.176,0.935,0.151,1.09-0.137c0.148-0.285,0.069-0.519-0.185-0.519
			C25.591,62.961,24.933,63.436,24.933,63.616z"/>
		<path fill="#9FB33A" d="M20.762,62.076c0.451-0.085,0.24,0.64,0.347,0.898c0.108,0.262,1.182,0.471,1.398,0.646
			c0.213,0.175,0.768-0.329,1.198-0.274c0.429,0.053-0.142-1.487-0.862-1.443c-0.721,0.048-1.291-0.653-1.458-0.739
			c-0.178-0.076-1.008-0.584-1.248-0.777c-0.236-0.191-2.072-0.354-2.696-0.354c-0.626,0-1.312,0.637-1.407,0.844
			c-0.1,0.212,0.989,0.351,1.296,0.186c0.314-0.16,1.768,0.184,2.066,0.534C19.693,61.943,20.311,62.161,20.762,62.076z"/>
		<path fill="#9FB33A" d="M18.803,63.616c0,0.176,0.947,0.065,1.172,0.073c0.231,0.003,0.222-0.152-0.017-0.343
			C19.72,63.155,18.803,63.436,18.803,63.616z"/>
		<path fill="#9FB33A" d="M19.472,58.748c-0.247-0.095-0.444,0.29-0.444,0.473c0,0.181,0.136,0.333,0.301,0.333
			C19.496,59.554,19.717,58.848,19.472,58.748z"/>
		<path fill="#9FB33A" d="M21.454,58.902c-0.085-0.184-0.488-0.331-0.608-0.331c-0.125,0-0.211,0.314-0.188,0.692
			C20.679,59.646,21.535,59.08,21.454,58.902z"/>
		<path fill="#9FB33A" d="M22.882,61.099c0.381-0.185,0.428-0.643,0.202-0.618c-0.229,0.023-0.647-0.657-0.895-0.754
			c-0.245-0.1-0.445,0.408-0.445,0.63c0,0.224,0.137,0.375,0.306,0.331C22.218,60.645,22.495,61.276,22.882,61.099z"/>
		<path fill="#9FB33A" d="M128.501,75.949c-0.196,0.103-1.149,0.215-1.272,0.028c-0.129-0.188-0.318,0.386-0.523,0.479
			c-0.2,0.092-0.091,0.592,0.214,0.438c0.211-0.105,1.115,0.395,1.851,0.855c0.146-0.726,0.273-1.458,0.395-2.196
			C128.898,75.694,128.625,75.883,128.501,75.949z"/>
	</g>
	<g>
		<path fill="#C0D34B" d="M19.865,84.352c-0.09,0.175,1.069,1.371,1.523,1.773c0.449,0.413,1.404,2.359,1.602,3.002
			c0.194,0.642,0.079,1.687,0.015,1.935c-0.061,0.247,0.219,0.786,0.266,1.011c0.039,0.228-0.402,2.141-0.231,2.91
			c0.168,0.77-0.899,3.17-0.877,4.36c0.027,1.191,0.566,2.744,0.782,2.629c0.218-0.115,0.293,1.085-0.071,1.228
			c-0.365,0.146-0.785,1.094-0.583,1.144c0.205,0.05-0.014,0.984,0.044,1.36c0.053,0.375,0.37,2.851,0.438,3.464
			c0.071,0.617,0.95,2.124,1.135,2.632c0.187,0.513,0.374,1.477,0.445,1.623c0.07,0.149,0.162,0.299,0.17,0.307
			c0.02,0.005,0.729,0.268,0.931,0.424c0.212,0.154,1.601,0.06,2.058-0.037c0.453-0.094,0.037-0.51-0.168-0.732
			c-0.205-0.23-0.388-1.326-0.624-1.439c-0.234-0.107-0.335-1.508-0.127-1.816c0.208-0.312,1.039-0.806,1.132-1.065
			c0.085-0.26,0.111-1.479-0.109-1.646c-0.226-0.165,0.064-1.646-0.104-2.382c-0.168-0.733,1.275-1.402,1.361-1.984
			c0.081-0.583,1.646-1.209,2-1.499c0.354-0.294,0.661-1.96,0.494-2.324c-0.172-0.355,0.577-0.646,0.911-0.646
			c0.332,0,0.706-0.24,0.836-0.24c0.126-0.003,0.521-0.741,0.735-0.909c0.213-0.17,0.655-1.934,1.041-2.223
			c0.391-0.289,0.711-1.354,0.711-1.667c0-0.311,0.594-1.24,0.789-1.52c0.192-0.28,1.654-0.948,1.915-1.053
			c0.261-0.109,0.656-2.453,0.759-3.295c0.1-0.844,0.539-1.967,0.57-2.241c0.029-0.28,0.496-0.516,0.583-0.604
			c0.089-0.089,0.435-1.16,0.66-1.41c0.224-0.244,1.031-1.266,1.051-1.497c0.018-0.229,0.139-0.812,0.274-1.304c0,0,0,0-0.006-0.57
			c0.007-0.916,0.007-0.916,0.007-0.916c-0.255-0.705-1.038-1.589-1.239-1.393c-0.197,0.192-1.103-0.626-1.561-0.801
			c-0.464-0.169-1.613-0.312-1.903-0.312c-0.291,0-1.296-0.822-1.745-0.968c-0.451-0.137-1.599-0.358-1.81-0.492
			c-0.211-0.136-0.492-1.845-1.417-2.4c-0.927-0.561-2.547-1.863-2.727-2.345c-0.178-0.475-1.954-1.479-2.508-1.782
			c-0.544-0.304-1.378-0.375-1.479-0.265c-0.111,0.104-0.793-0.927-1.143-1.221c-0.357-0.287-1.421-0.531-1.468-0.27
			c-0.052,0.262-0.755,0.126-0.923-0.1c-0.163-0.219-0.713,0.092-0.972,0.176c-0.254,0.081-1.141,1.432-1.544,1.757
			c-0.412,0.321-0.893-0.299-1.159-0.417c-0.27-0.115-1.287,0.202-1.567,0.4c-0.277,0.196-0.922-1.431-0.771-2.18
			c0.147-0.748-0.67-2.237-1.305-2.274c-0.628-0.036-0.828-1.603-0.703-2.18c0.128-0.576-1.142-0.938-1.458-0.977
			c-0.325-0.043-1.113,0.771-1.245,1.161c-0.138,0.389-3.016-0.528-2.673-2.258c0.334-1.723,1.697-3.508,2.037-3.72
			c0.339-0.207,2.189-0.313,2.597-0.083c0.41,0.239,0.779-0.003,0.849-0.105c0.068-0.107,1.577,0.018,2.029,0.201
			c0.444,0.182,1.095,1.922,1.558,2.136c0.472,0.22,0.643-1.123,0.715-1.449c0.077-0.327-0.227-1.155-0.338-1.388
			c-0.115-0.232,0.747-2.345,1.457-2.704c0.697-0.361,1.444-1.534,1.389-1.743c-0.065-0.206,0.562-0.369,0.728-0.461
			c0.17-0.081-0.025-1.792,0.252-2.164c0.281-0.368,1.603-1.151,2.022-1.327c0.416-0.178,0.732-1.256,0.583-1.442
			c-0.152-0.193,1.08-1.243,1.723-1.449c0.641-0.194,1.194,0.371,1.037,0.458c0.128-0.07,1.012-0.528,1.39-0.775
			c0.438-0.292,0.005-1.092-0.279-1.329c-0.28-0.229-0.111-1.157,0.228-1.243c0.344-0.082,0.642-0.885,0.55-1.056
			c-0.09-0.177,1.412,0.137,1.985-0.288c0.563-0.423,0.162,1.019-0.258,1.6c-0.412,0.581,0.308,1.131,0.577,1.021
			c0.268-0.113,0.554,0.307,0.61,0.473c0.053,0.158,0.632-0.17,1.009-0.007c0.381,0.165,0.604-0.517,0.636-0.832
			c0.025-0.316-0.908-0.972-1.054-1.349c-0.144-0.377-0.205-2.58-0.225-3.034c-0.022-0.45-0.627-1.185-0.822-1.052
			c-0.193,0.124-0.592-1.173-0.906-1.455c-0.317-0.28-0.387-0.903-0.374-1.112c0.016-0.21-1.066-1.339-1.326-1.861
			c-0.258-0.522-0.622-0.417-0.646-0.179c-0.028,0.24-0.777,0.272-1.086,0.244c-0.311-0.028-0.563-1.222-0.563-1.672
			c0-0.448-1.391-0.526-1.619-0.892c-0.229-0.358-1.134-0.189-1.281-0.44s-0.952-0.483-1.105-0.39
			c-0.167,0.095-0.087,3.328-0.24,4.201c-0.155,0.872-0.892,1.638-1.165,1.617c-0.266-0.019-0.107,0.622,0.08,0.564
			c0.19-0.06-0.524,0.953-0.616,1.615c-0.097,0.659-0.769-0.031-0.877-0.631c-0.11-0.602-0.766-1.414-0.889-1.207
			c-0.128,0.204-0.579-0.246-0.777-0.118c-0.194,0.129-1.437-0.722-1.938-0.997c-0.5-0.264-0.784-1.806-1.068-1.94
			c-0.291-0.139-0.045-0.321-0.056-0.556c-0.01-0.231,0.97-1.129,1.267-1.482c0.294-0.358,1.369-1.756,1.796-2.055
			c0.43-0.304,0.762-1.103,0.688-1.253c-0.075-0.143,1.825-0.738,2.339-0.915c0.514-0.176,0.959-1.609,1.028-2.021
			c0.071-0.415-0.322-1.192-0.559-1.296c-0.243-0.101,0.715-0.137,1.031,0.022c0.32,0.155,1.299-0.29,1.687-0.084
			c0.382,0.202,1.166,0.668,1.731,1.023c0,0,0,0-0.122,1.054c-0.229,1.784-0.229,1.784-0.229,1.784
			c-1.498,0.621-1.929,1.691-1.403,1.67c0.524-0.025,2.912,1.033,3.59,1.518c0.674,0.483,0.886-0.7,1.085-1.094
			c0.2-0.389,0.135-1.536-0.025-1.761c-0.163-0.23,0.781-0.15,1.044,0.104c0.267,0.254,0.578-0.261,0.781-0.351
			c0.202-0.093,0.303-1.073,0.415-1.27c0.106-0.202-0.448-0.402-0.464-0.646c-0.019-0.249-1.092-0.713-1.438-0.881
			c-0.354-0.166-0.435-0.907-0.262-1.035c0.171-0.13-0.119-1.071-0.293-1.382c-0.168-0.313-1.292-0.567-1.667-0.567
			c-0.372,0-0.758-0.866-0.975-0.992c-0.215-0.125-1.658-0.282-2.008-0.179c-0.357,0.104-1.012-1.021-1.612-0.678
			c-0.602,0.343-1.219-0.401-1.491-0.552c-0.273-0.147-1.68,1.362-1.669,2.424c0.016,1.066,0.55,2.093,0.77,2.122
			c0.221,0.029-0.051,0.988-0.297,1.264c-0.244,0.271-0.836-0.289-0.609-0.53c0.22-0.24-0.613-1.354-0.9-1.804
			c-0.205-0.328-0.935-0.619-1.431-0.817c-0.292,0.316-0.575,0.638-0.855,0.959c0.108,0.386,0.239,0.889,0.112,1.27
			c-0.207,0.647-0.75,0.747-0.781,0.467c-0.016-0.125-0.29-0.219-0.611-0.262c-0.293,0.352-0.576,0.715-0.86,1.073
			c-0.283,0.352-0.563,0.703-0.837,1.062c-0.296,0.382-0.584,0.77-0.868,1.16c-0.258,0.35-0.505,0.704-0.755,1.06
			c-0.372,0.527-0.736,1.061-1.088,1.599c-0.344,0.518-0.679,1.034-1.006,1.561c-0.276,0.451-0.544,0.912-0.812,1.371
			c-0.182,0.318-0.365,0.635-0.549,0.953c-0.266,0.48-0.533,0.966-0.789,1.452c-0.146,0.276-0.287,0.557-0.431,0.837
			c-0.585,1.146-1.147,2.313-1.662,3.502c-0.017,0.036-0.032,0.065-0.046,0.098c-0.256,0.585-0.494,1.178-0.732,1.773
			c-0.092,0.225-0.18,0.45-0.268,0.674c-0.233,0.611-0.466,1.225-0.682,1.842c-0.037,0.103-0.069,0.209-0.107,0.312
			c-0.718,2.072-1.336,4.188-1.838,6.347c-0.037,0.145-0.07,0.288-0.102,0.433c-0.511,2.235-0.907,4.512-1.179,6.825
			c0,0.017-0.004,0.034-0.009,0.048c0.314,0.36,0.67,0.783,0.764,1.089c0.18,0.568,1.172,0.947,1.359,1.062
			c0.184,0.112,0.248-1.094,0.114-1.408c-0.128-0.313,0.243-0.502,0.233-0.271c-0.007,0.232,0.936,1.292,1.244,1.68
			c0.311,0.383,0.631,2.863,0.928,3.395c0.296,0.532,3.155,1.636,4.081,1.825c0.921,0.198,2.081,1.228,2.263,1.525
			c0.179,0.298,1.401,0.448,1.666,0.565c0.265,0.123,0.892,0.952,1.152,1.125c0.26,0.176,0.467,0.666,0.467,0.799
			c0,0.131,1.616,0.743,2.006,1.173c0.393,0.434,1.041,0.315,1.164,0.134c0.122-0.182,0.44,0.858,0.61,1.219
			c0.161,0.359,0.203,1.243,0.076,1.385c-0.126,0.139-0.359,1.764-0.634,2.089c-0.276,0.327-0.848,2.69-0.726,3.153
			c0.125,0.47,0.884,1.433,1.212,1.578c0.325,0.142,0.187,0.647-0.068,0.682c-0.26,0.033-0.14,2.29,0.468,2.625
			C19.442,83.179,19.953,84.181,19.865,84.352z"/>
		<path fill="#C0D34B" d="M27.521,44.75l-0.004,0.003L27.521,44.75z"/>
		<path fill="#C0D34B" d="M23.073,17.332c0.778-0.13,2.072-0.347,2.163-0.563c0.062-0.181,0.071-0.714-0.074-0.9
			c0.123,0.007,0.268,0.012,0.375,0.012c0.296,0,0.789-1.619,1.099-1.997c0.314-0.378,2.092-0.936,2.517-1.192
			c0.426-0.258,1.351-1.15,1.708-1.253c0.356-0.108,0.876-0.937,0.797-1.107c-0.078-0.164,1.204-0.942,1.692-1.151
			c0.485-0.206,0.738-0.777,0.558-0.798c-0.117-0.019-2.834,1.402-5.32,2.813c-0.022,0.018-0.047,0.035-0.069,0.053
			c-0.712,0.482-1.414,0.984-2.105,1.495c-0.472,0.348-0.928,0.713-1.391,1.072c-0.241,0.191-0.485,0.38-0.728,0.572
			c-0.544,0.442-1.087,0.896-1.621,1.357c-0.108,0.093-0.224,0.191-0.337,0.291c-0.591,0.518-1.175,1.042-1.75,1.581
			C21.363,17.561,22.564,17.418,23.073,17.332z"/>
		<path fill="#C0D34B" d="M64.213,49.078c-0.304-0.015-0.314,0.917,0.008,1.019c0.232,0.071,0.523-0.522,0.798-0.911v-3.624
			c-0.023-0.024-0.046-0.055-0.071-0.081c-0.382-0.385-0.326-0.394,0.071-0.095V23.145c-0.328,0.307-0.649,0.598-0.85,0.755
			c-0.533,0.419-1.464,2.228-1.761,2.658c-0.309,0.431-0.741,0.512-0.919,0.523c-0.179,0.01-0.323,0.492-0.323,0.667
			c0,0.18-1.573,0.998-1.736,1.712c-0.167,0.714,0.154,2.345,0.154,2.927c0,0.579,0.583,1.729,1.019,1.748
			c0.435,0.02,0.208,0.985,0.093,1.255c-0.113,0.272,0.276,0.566,0.261,0.799c-0.008,0.229-1.103,0.553-1.437,0.684
			c-0.343,0.123-0.887,0.889-0.959,1.17c-0.061,0.25-1.109,0.426-1.457,0.758c0.087-0.238,0.202-0.57,0.299-0.758
			c0.199-0.381-0.076-1.047-0.242-1.184c-0.163-0.139-0.242-2.028-0.508-2.432c-0.265-0.408-0.927-1.094-1.09-1.229
			c-0.161-0.13,0.114-0.629,0.209-0.841c0.097-0.209-0.881-0.331-1.149-0.175c-0.268,0.154-0.412,2.025-0.523,2.537
			c-0.108,0.513,0.483,1.301,0.646,1.335c0.157,0.04,0.116,0.963-0.225,0.991c-0.346,0.032-0.658,1.378-0.482,1.684
			c0.177,0.31-0.246,0.911-0.448,1.053c-0.204,0.134,1.312,0.058,2.011,0.039c0.689-0.017,1.232,0.293,1.16,0.349
			c-0.074,0.057-1.326,0.245-1.551,0.541c-0.221,0.296-1.074,0.867-1.239,1.099c-0.164,0.226,0.28,0.731,0.643,0.708
			c0.359-0.021,0.771,1.246,1.051,1.48c0.279,0.235,0.177,0.891,0.056,1.071c-0.128,0.18-1.821-0.121-2.463,0.037
			c-0.645,0.158-1.458,1.521-1.512,2.032c-0.06,0.516,0.102,1.992,0.188,2.398c0.08,0.406,1.429,0.664,1.698,0.863
			c0.279,0.196,1.566,0.006,1.837,0.129c0.261,0.128,1.134-1.306,1.307-1.971c0.166-0.668,1.543-1.886,1.83-2.341
			c0.284-0.452,1.766-0.397,2.129-0.638c0.366-0.23,0.161,1.125,0.337,1.87c0.173,0.749,1.592,0.655,1.383-0.047
			c-0.207-0.698,0.142-1.004,0.198-0.75c0.062,0.25,1.422,0.808,1.681,1.201C64.588,48.252,64.515,49.087,64.213,49.078z"/>
		<path fill="#C0D34B" d="M65.019,53.474c-0.276-0.145-0.535-0.275-0.734-0.358c-0.838-0.354-1.495-1.631-1.667-1.796
			c-0.173-0.168,0.145-0.579,0.063-0.83c-0.08-0.254-1.989-0.309-2.543-0.1c-0.558,0.204-3.419,0.506-4.1,0.802
			c-0.677,0.306-1.697-0.017-2.015-0.073c-0.318-0.055-1.076,0.881-1.459,1.049c-0.389,0.17-0.875,1.494-1.086,2.948
			c0,0,0,0-0.521,1.015c-0.336,0.646-0.336,0.646-0.336,0.646c-0.946,0.72-1.992,3.122-2.301,3.604
			c-0.307,0.48-0.552,3.936-0.552,5.1s1.013,3.627,1.302,4.303c0.287,0.681,2.04,2.183,2.625,2.544
			c0.587,0.352,2.493,0.4,3.119,0.398c0.619-0.003,1.332-0.595,1.573-1.317c0,0,0,0,0.917,0.092c0.42,0.042,0.42,0.042,0.42,0.042
			c0.021,0.513,1.373,0.921,1.705,1.102c0.329,0.181,1.22,0.043,1.484-0.036c0.266-0.073,0.562,2.313,0.367,3.003
			c-0.188,0.69,0.473,3.111,0.664,3.839c0.197,0.73,1.024,2.723,1.112,3.439c0.077,0.714-0.49,3.092-0.583,3.926
			c-0.094,0.836,1.036,3.164,1.338,3.966c0.294,0.801,0.536,2.525,0.536,2.923c0,0.205,0.318,0.927,0.67,1.717V53.474z"/>
		<path fill="#C0D34B" d="M31.755,110.54c0.295,0,0.585,0,0.894,0C32.808,109.574,31.707,109.733,31.755,110.54z"/>
		<path fill="#C0D34B" d="M49.764,21.643c0.457,0.181,1.321-0.448,0.992-0.691c-0.339-0.24-0.16-0.234,0-0.132
			c0.16,0.1,0.329-0.802,0.157-0.973c-0.177-0.173,1.335-1.273,1.067-2.316c-0.262-1.041,0.412-2.11,0.818-2.122
			c0.408-0.013,0.289-1.177-0.198-1.286c-0.482-0.106-0.028-0.214,0.154-0.381c0.182-0.163,0.41-1.205,0.306-1.403
			c-0.11-0.202,0.743-0.426,0.89-0.664c0.154-0.234,1.126-0.699,1.473-0.777c0.34-0.081,0.527-0.992,0.156-0.951
			c-0.375,0.047-1.344-0.148-1.512-0.328c-0.166-0.176-1.62-0.334-2.038-0.157c-0.419,0.176-0.132-1.022,0.451-1.151
			c0.584-0.131,0.088-0.957-0.531-0.959c-0.623-0.004-2.154-0.229-2.515-0.148c-0.362,0.078-1.065-0.252-1.322-0.289
			c-0.258-0.037-2.098,0.55-2.969,0.508c-0.872-0.038-3.012,0.049-3.472,0.18c-0.471,0.121-0.807,1.027-0.738,1.348
			c0.067,0.324-2.07,0.318-2.74,0.328c-0.676,0.008-4.258,0.771-5.195,1.286c-0.936,0.514-1.667,1.829-1.356,1.856
			c0.309,0.025-0.521,0.771-1.023,0.946c-0.504,0.17-1.703,0.248-1.987,0.531c-0.28,0.281,0.301,0.475,0.413,0.666
			c0.111,0.187,0.445-0.166,0.766,0.018c0.313,0.178,1.36,0.262,1.634,0.368c0.281,0.109-0.885,0.331-1.432,0.372
			c-0.548,0.037-0.424,1.113,0.021,1.261c0.447,0.15,1.599,0.308,1.714,0.122c0.118-0.187,1.366,0.203,1.93,0.271
			c0.558,0.059,0.989,1.468,1.159,1.774c0.174,0.304,0.209,1.376,0.167,1.687c-0.038,0.31,0.994,0.876,1.181,0.678
			c0.183-0.196,0.131,0.486-0.281,0.449c-0.413-0.035-0.144,1.157,0.367,1.33c0.506,0.168,0.16,0.902-0.132,1.126
			c-0.298,0.22-0.137,0.921-0.438,1.174c-0.3,0.249,1.069,2.619,1.062,3.841c-0.009,1.217,0.75,2.214,1.041,2.214
			c0.293,0,1.296,0.245,1.426,0.506c0.134,0.26,0.616-0.18,0.809-0.381c0.187-0.198,0.598-0.787,0.903-1.303
			c0.309-0.517,0.996-2.961,1.088-3.223c0.093-0.265,1.241-0.099,1.503-0.232c0.261-0.137,1.014-0.728,1.228-0.904
			c0.212-0.177,1.85-0.869,2.301-1.193c0.444-0.319,1.189-1.708,1.536-2.003c0.349-0.299-0.178-0.211-0.617-0.497
			c-0.43-0.283-0.241-0.634-0.113-0.767C47.986,21.111,49.306,21.467,49.764,21.643z"/>
		<path fill="#C0D34B" d="M64.048,10.797c-0.462-0.158-1.401,0.354-1.284,0.646c0.123,0.294-0.764-0.373-1.383-0.055
			c-0.617,0.324-0.788,1.406-0.504,1.549c0.284,0.14,0.492,1.004,0.496,1.168c0.012,0.169,1.204,0.047,1.509-0.2
			c0.302-0.254,0.261,0.871-0.036,1.175c-0.303,0.305,0.106,0.915,0.439,0.965c0.332,0.046,0.781,0.83,1.126,0.821
			c0.171-0.007,0.401-0.342,0.607-0.731v-3.981l-0.002-0.001C64.752,12.114,64.506,10.953,64.048,10.797z"/>
		<path fill="#C0D34B" d="M52.795,37.95c0.358-0.059,0.639-0.352,0.626-0.652c-0.021-0.295-0.529-1.648-0.733-1.648
			c-0.203,0-0.592,0.992-0.834,0.897c-0.242-0.1-0.377,0.806-0.321,1.149C51.588,38.042,52.436,38.013,52.795,37.95z"/>
		<path fill="#C0D34B" d="M51.499,27.916c0.123,0.358,0.579,0.591,1.016,0.523c0.433-0.073,1.3-0.521,1.605-0.551
			c0.306-0.032,0.641-1.562,0.45-1.893c-0.189-0.335-1.627-0.293-1.98-0.315c-0.348-0.02-1.424-0.378-1.629-0.606
			c-0.198-0.229-0.358,0.885-0.685,1.03c-0.332,0.145,0.159,0.356,0.296,0.237c0.132-0.117-0.009,0.574-0.156,0.811
			C50.269,27.391,51.372,27.557,51.499,27.916z"/>
		<path fill="#C0D34B" d="M19.438,27.943c-0.228,0.211-0.029,1.265,0.401,1.295c0.428,0.03,1.115-1.591,1.642-1.265
			c0.526,0.325,0.884,0.453,0.797,0.28c-0.089-0.17-1.587-0.829-1.774-0.949C20.32,27.192,19.669,27.741,19.438,27.943z"/>
		<path fill="#C0D34B" d="M24.933,63.616c0,0.176,0.935,0.151,1.09-0.137c0.148-0.285,0.069-0.519-0.185-0.519
			C25.591,62.961,24.933,63.436,24.933,63.616z"/>
		<path fill="#C0D34B" d="M20.762,62.076c0.451-0.085,0.24,0.64,0.347,0.898c0.108,0.262,1.182,0.471,1.398,0.646
			c0.213,0.175,0.768-0.329,1.198-0.274c0.429,0.053-0.142-1.487-0.862-1.443c-0.721,0.048-1.291-0.653-1.458-0.739
			c-0.178-0.076-1.008-0.584-1.248-0.777c-0.236-0.191-2.072-0.354-2.696-0.354c-0.626,0-1.312,0.637-1.407,0.844
			c-0.1,0.212,0.989,0.351,1.296,0.186c0.314-0.16,1.768,0.184,2.066,0.534C19.693,61.943,20.311,62.161,20.762,62.076z"/>
		<path fill="#C0D34B" d="M18.803,63.616c0,0.176,0.947,0.065,1.172,0.073c0.231,0.003,0.222-0.152-0.017-0.343
			C19.72,63.155,18.803,63.436,18.803,63.616z"/>
		<path fill="#C0D34B" d="M19.472,58.748c-0.247-0.095-0.444,0.29-0.444,0.473c0,0.181,0.136,0.333,0.301,0.333
			C19.496,59.554,19.717,58.848,19.472,58.748z"/>
		<path fill="#C0D34B" d="M21.454,58.902c-0.085-0.184-0.488-0.331-0.608-0.331c-0.125,0-0.211,0.314-0.188,0.692
			C20.679,59.646,21.535,59.08,21.454,58.902z"/>
		<path fill="#C0D34B" d="M22.882,61.099c0.381-0.185,0.428-0.643,0.202-0.618c-0.229,0.023-0.647-0.657-0.895-0.754
			c-0.245-0.1-0.445,0.408-0.445,0.63c0,0.224,0.137,0.375,0.306,0.331C22.218,60.645,22.495,61.276,22.882,61.099z"/>
	</g>
	<path fill="#D1EBF9" d="M25.236,16.011c-0.067-0.066-0.341,0.133-0.218,0.251C25.075,16.344,25.344,16.148,25.236,16.011z"/>
	<path fill="#D1EBF9" d="M32.437,37.473c-0.053-0.078-0.329,0.129-0.224,0.255C32.278,37.801,32.554,37.602,32.437,37.473z"/>
</g>
<g>
	<path fill="#609CA4" d="M85.969,15.424C79.329,12.488,72.28,11,65.018,11s-14.312,1.488-20.951,4.424l-2.426-5.488
		C49.049,6.661,56.914,5,65.018,5s15.969,1.661,23.377,4.936L85.969,15.424z"/>
</g>
</svg>
