<?xml version="1.0" encoding="utf-8"?>
<!-- Generator: Adobe Illustrator 16.0.4, SVG Export Plug-In . SVG Version: 6.00 Build 0)  -->
<!DOCTYPE svg PUBLIC "-//W3C//DTD SVG 1.1//EN" "http://www.w3.org/Graphics/SVG/1.1/DTD/svg11.dtd">
<svg version="1.1" id="Layer_1" xmlns="http://www.w3.org/2000/svg" xmlns:xlink="http://www.w3.org/1999/xlink" x="0px" y="0px"
	 width="300.35px" height="60.813px" viewBox="0 0 300.35 60.813" enable-background="new 0 0 300.35 60.813" xml:space="preserve">
<g>
	<polygon fill="#F0CA68" points="44.151,45.948 16.768,45.948 16.768,27.048 44.151,31.56 	"/>
	<polygon fill="#F36D38" points="44.151,32.369 16.199,27.859 16.199,26.333 44.151,30.845 	"/>
	<rect x="0.898" y="46.426" fill="#F0CA68" width="43.253" height="14.388"/>
	<rect x="34.541" y="55.572" fill="#50C3C7" width="5.987" height="5.241"/>
	<rect x="4.129" y="50.808" fill="#F4DA80" width="15.356" height="6.957"/>
	<rect x="22.615" y="50.808" fill="#F4DA80" width="18.405" height="2.573"/>
	<rect x="16.768" y="35.751" fill="#F4DA80" width="20.311" height="6.958"/>
	<rect y="45.71" fill="#F36D38" width="44.151" height="1.524"/>
</g>
<g>
	<g>
		<rect x="118.256" y="39.426" fill="#F8A91B" width="2.107" height="9.486"/>
		<polygon fill="#F4DA80" points="133.881,60.813 115.804,60.813 115.804,46.568 124.636,41.007 133.881,46.568 		"/>
		<polygon fill="#F36D38" points="124.619,41.138 134.233,46.952 134.233,46.259 124.627,40.232 115.453,46.259 115.453,46.94 		"/>
	</g>
	<rect x="124.93" y="48.1" fill="#F4DA80" width="3.44" height="3.513"/>
	<rect x="128.736" y="48.1" fill="#F4DA80" width="3.44" height="3.513"/>
</g>
<path fill="#85C98F" d="M43.352,60.813c0.013-0.088,0.021-0.176,0.021-0.27c0-1.038-0.842-1.881-1.879-1.881
	c-0.133,0-0.261,0.015-0.384,0.039c-0.351-0.743-0.921-1.364-1.627-1.775c-0.649-1.354-2.03-2.293-3.631-2.293
	c-1.42,0-2.666,0.736-3.384,1.843c-0.536-0.555-1.29-0.902-2.124-0.902c-1.085,0-2.03,0.584-2.544,1.455
	c-0.74-0.889-1.853-1.455-3.099-1.455c-1.501,0-2.806,0.819-3.499,2.036c-1.764,0.177-3.19,1.495-3.539,3.203H43.352z"/>
<path fill="#7BC286" d="M134.259,60.813c0.014-0.088,0.021-0.176,0.021-0.27c0-1.038-0.843-1.881-1.882-1.881
	c-0.13,0-0.258,0.015-0.382,0.039c-0.35-0.743-0.92-1.364-1.626-1.775c-0.649-1.354-2.03-2.293-3.633-2.293
	c-1.419,0-2.665,0.736-3.384,1.843c-0.536-0.555-1.29-0.902-2.123-0.902c-1.084,0-2.03,0.584-2.543,1.455
	c-0.74-0.889-1.854-1.455-3.102-1.455c-1.497,0-2.804,0.819-3.497,2.036c-1.765,0.177-3.191,1.495-3.539,3.203H134.259z"/>
<g>
	<rect x="61.449" y="26.728" fill="#F0CA68" width="29.143" height="34.086"/>
	<rect x="81.503" y="47.193" fill="#F8A91B" width="6.208" height="13.62"/>
	<rect x="80.29" y="58.717" fill="#F4DA80" width="8.634" height="2.097"/>
	<rect x="61.449" y="42.898" fill="#F8A91B" width="29.143" height="3.209"/>
	<rect x="61.449" y="42.165" fill="#F4DA80" width="29.143" height="0.733"/>
	<rect x="61.449" y="26.979" fill="#F8A91B" width="29.143" height="2.452"/>
	<rect x="61.191" y="42.391" fill="#F0CA68" width="29.656" height="2.179"/>
	<g>
		<rect x="64.568" y="30.605" fill="#F4DA80" width="1.82" height="4.246"/>
		<rect x="67.197" y="30.605" fill="#F4DA80" width="1.818" height="4.246"/>
		<rect x="64.568" y="35.962" fill="#F4DA80" width="1.82" height="4.244"/>
		<rect x="67.197" y="35.962" fill="#F4DA80" width="1.818" height="4.244"/>
	</g>
	<g>
		<rect x="73.464" y="30.605" fill="#F4DA80" width="1.819" height="4.246"/>
		<rect x="76.093" y="30.605" fill="#F4DA80" width="1.817" height="4.246"/>
		<rect x="73.464" y="35.962" fill="#F4DA80" width="1.819" height="4.244"/>
		<rect x="76.093" y="35.962" fill="#F4DA80" width="1.817" height="4.244"/>
	</g>
	<g>
		<rect x="82.358" y="30.605" fill="#F4DA80" width="1.819" height="4.246"/>
		<rect x="84.985" y="30.605" fill="#F4DA80" width="1.819" height="4.246"/>
		<rect x="82.358" y="35.962" fill="#F4DA80" width="1.819" height="4.244"/>
		<rect x="84.985" y="35.962" fill="#F4DA80" width="1.819" height="4.244"/>
	</g>
	<g>
		<rect x="64.568" y="47.384" fill="#F4DA80" width="1.82" height="4.246"/>
		<rect x="67.197" y="47.384" fill="#F4DA80" width="1.818" height="4.246"/>
		<rect x="64.568" y="52.739" fill="#F4DA80" width="1.82" height="4.246"/>
		<rect x="67.197" y="52.739" fill="#F4DA80" width="1.818" height="4.246"/>
	</g>
	<g>
		<rect x="73.464" y="47.384" fill="#F4DA80" width="1.819" height="4.246"/>
		<rect x="76.093" y="47.384" fill="#F4DA80" width="1.817" height="4.246"/>
		<rect x="73.464" y="52.739" fill="#F4DA80" width="1.819" height="4.246"/>
		<rect x="76.093" y="52.739" fill="#F4DA80" width="1.817" height="4.246"/>
	</g>
	<polygon fill="#F36D38" points="86.424,16.858 81.383,16.858 79.253,16.858 72.475,16.858 69.891,16.858 65.305,16.858 
		61.719,25.805 64.145,25.805 75.666,25.805 76.061,25.805 87.129,25.805 90.01,25.805 	"/>
	<rect x="61.191" y="25.713" fill="#F0CA68" width="29.656" height="2.18"/>
</g>
<g>
	<g>
		<rect x="283.413" y="35.339" fill="#F8A91B" width="2.228" height="10.026"/>
		<polygon fill="#F4DA80" points="299.928,57.944 280.821,57.944 280.821,42.889 290.156,37.01 299.928,42.889 		"/>
		<polygon fill="#F36D38" points="290.139,37.148 300.301,43.294 300.301,42.561 290.147,36.191 280.451,42.561 280.451,43.281 		
			"/>
	</g>
	<rect x="290.467" y="44.507" fill="#F4DA80" width="3.637" height="3.713"/>
	<rect x="294.49" y="44.507" fill="#F4DA80" width="3.637" height="3.713"/>
</g>
<g>
	<g>
		<polygon fill="#F0CA68" points="286.419,57.944 269.647,57.944 269.647,7.666 277.84,1.706 286.419,7.666 		"/>
		<polygon fill="#F36D38" points="277.825,1.994 286.745,8.508 286.745,6.982 277.833,0 269.321,6.982 269.321,8.487 		"/>
	</g>
	<rect x="276.762" y="11.885" fill="#F8A91B" width="2.541" height="5.371"/>
	<rect x="276.762" y="19.404" fill="#FFFFFF" width="2.541" height="5.371"/>
	<rect x="276.762" y="26.924" fill="#F8A91B" width="2.541" height="5.371"/>
	<rect x="276.762" y="34.444" fill="#FFFFFF" width="2.541" height="5.371"/>
</g>
<path fill="#7BC286" d="M300.327,57.944c0.015-0.093,0.022-0.186,0.022-0.285c0-1.097-0.891-1.987-1.988-1.987
	c-0.138,0-0.272,0.015-0.404,0.041c-0.369-0.785-0.972-1.442-1.718-1.877c-0.687-1.432-2.146-2.423-3.84-2.423
	c-1.5,0-2.817,0.778-3.576,1.947c-0.567-0.586-1.364-0.953-2.244-0.953c-1.146,0-2.146,0.617-2.688,1.537
	c-0.783-0.938-1.961-1.537-3.278-1.537c-1.583,0-2.964,0.865-3.696,2.151c-1.865,0.188-3.373,1.58-3.74,3.386H300.327z"/>
</svg>
