<?xml version="1.0" encoding="utf-8"?>
<!-- Generator: Adobe Illustrator 16.0.4, SVG Export Plug-In . SVG Version: 6.00 Build 0)  -->
<!DOCTYPE svg PUBLIC "-//W3C//DTD SVG 1.1//EN" "http://www.w3.org/Graphics/SVG/1.1/DTD/svg11.dtd">
<svg version="1.1" id="Layer_1" xmlns="http://www.w3.org/2000/svg" xmlns:xlink="http://www.w3.org/1999/xlink" x="0px" y="0px"
	 width="288.358px" height="55.432px" viewBox="0 0 288.358 55.432" enable-background="new 0 0 288.358 55.432"
	 xml:space="preserve">
<g>
	<circle fill="#7BC286" cx="9.062" cy="29.627" r="9.062"/>
	<path fill="#AFD6A6" d="M5.119,27.238c-1.095-0.115-2.021-0.939-2.226-2.063C3.99,25.289,4.914,26.113,5.119,27.238z"/>
	<path fill="#AFD6A6" d="M14.968,29.566c0.113-1.095,0.938-2.021,2.062-2.225C16.915,28.438,16.091,29.362,14.968,29.566z"/>
	<path fill="#85C98F" d="M12.543,30.961c-0.941-1.161-1.037-2.842-0.154-4.116C13.331,28.006,13.427,29.687,12.543,30.961z"/>
	<path fill="#85C98F" d="M6.752,28.372c-0.94-1.161-1.039-2.841-0.153-4.116C7.539,25.418,7.635,27.097,6.752,28.372z"/>
	<path fill="#85C98F" d="M2.164,29.525c1.161-0.94,2.841-1.036,4.115-0.154C5.119,30.312,3.438,30.408,2.164,29.525z"/>
	<path fill="#85C98F" d="M17.455,32.096c-1.162,0.942-2.841,1.037-4.119,0.154C14.5,31.31,16.179,31.214,17.455,32.096z"/>
	<polygon fill="#48505A" points="9.062,24.653 8.606,40.042 8.147,55.432 9.062,55.432 9.977,55.432 9.52,40.042 	"/>
	<polygon fill="#48505A" points="14.332,30.185 11.622,32.771 8.912,35.354 9.038,35.479 9.164,35.606 11.748,32.895 	"/>
	<polygon fill="#48505A" points="5.824,28.334 7.391,29.975 8.957,31.612 9.029,31.539 9.104,31.466 7.463,29.9 	"/>
	<polygon fill="#48505A" points="5.869,33.919 7.393,35.603 8.918,37.283 9.074,37.127 9.231,36.97 7.551,35.445 	"/>
</g>
<g>
	<circle fill="#7BC286" cx="106.638" cy="14.762" r="9.061"/>
	<circle fill="#AFD6A6" cx="115.666" cy="29.888" r="6.2"/>
	<circle fill="#85C98F" cx="99.722" cy="23.892" r="4.156"/>
	<path fill="#AFD6A6" d="M101.437,24.439c-0.694-0.854-0.765-2.092-0.116-3.031C102.014,22.263,102.086,23.501,101.437,24.439z"/>
	<path fill="#AFD6A6" d="M102.695,12.372c-1.094-0.113-2.02-0.938-2.225-2.062C101.566,10.425,102.49,11.249,102.695,12.372z"/>
	<path fill="#AFD6A6" d="M112.545,14.702c0.113-1.096,0.939-2.021,2.062-2.225C114.492,13.572,113.668,14.496,112.545,14.702z"/>
	<path fill="#85C98F" d="M112.05,32.597c-0.794-0.762-1.021-1.979-0.494-2.992C112.352,30.366,112.578,31.583,112.05,32.597z"/>
	<path fill="#85C98F" d="M116.436,30.691c1.488,0.156,2.743,1.277,3.021,2.803C117.969,33.339,116.714,32.218,116.436,30.691z"/>
	<path fill="#85C98F" d="M117.568,29.788c0.155-1.488,1.274-2.741,2.801-3.02C120.213,28.256,119.093,29.511,117.568,29.788z"/>
	<path fill="#85C98F" d="M110.12,16.097c-0.941-1.162-1.037-2.841-0.154-4.116C110.907,13.141,111.002,14.82,110.12,16.097z"/>
	<path fill="#85C98F" d="M104.328,13.507c-0.941-1.161-1.038-2.841-0.154-4.116C105.115,10.552,105.211,12.232,104.328,13.507z"/>
	<path fill="#85C98F" d="M99.74,14.66c1.162-0.941,2.84-1.037,4.117-0.154C102.695,15.447,101.016,15.544,99.74,14.66z"/>
	<path fill="#85C98F" d="M115.031,17.23c-1.162,0.941-2.84,1.039-4.116,0.155C112.075,16.442,113.756,16.349,115.031,17.23z"/>
	<path fill="#85C98F" d="M113.957,28.835c0.108-1.032,0.884-1.901,1.942-2.095C115.79,27.771,115.015,28.642,113.957,28.835z"/>
	<path fill="#85C98F" d="M113.512,25.119c-0.611,0.657-0.545,1.521,0.107,2.119C114.23,26.581,114.164,25.716,113.512,25.119z"/>
	<path fill="#7BC286" d="M121.029,30.35c-0.657-0.612-1.521-0.547-2.119,0.106C119.566,31.068,120.431,31.002,121.029,30.35z"/>
	<path fill="#7BC286" d="M113.25,28.485c-1.032-0.107-1.902-0.884-2.095-1.941C112.186,26.651,113.057,27.428,113.25,28.485z"/>
	<path fill="#7BC286" d="M99.287,23.207c-0.939-0.1-1.734-0.807-1.909-1.773C98.318,21.532,99.112,22.24,99.287,23.207z"/>
	<path fill="#AFD6A6" d="M99.545,25.414c-0.725-0.076-1.336-0.621-1.471-1.362C98.799,24.126,99.408,24.673,99.545,25.414z"/>
	<path fill="#AFD6A6" d="M100.09,21.804c-0.507-0.054-0.934-0.433-1.026-0.953C99.568,20.905,99.995,21.285,100.09,21.804z"/>
	<path fill="#AFD6A6" d="M99.507,26.265c-0.054,0.506-0.434,0.933-0.95,1.027C98.607,26.786,98.989,26.359,99.507,26.265z"/>
	<polygon fill="#48505A" points="106.639,9.787 106.182,32.609 105.723,55.432 106.639,55.432 107.553,55.432 107.096,32.609 	"/>
	<polygon fill="#48505A" points="111.909,15.32 109.199,17.904 106.487,20.488 106.613,20.614 106.738,20.74 109.325,18.031 	"/>
	<polygon fill="#48505A" points="116.77,28.9 111.548,33.879 106.325,38.858 106.568,39.103 106.812,39.345 111.789,34.123 	"/>
	<polygon fill="#48505A" points="99.486,23.624 102.926,27.231 106.364,30.838 106.531,30.671 106.699,30.502 103.094,27.064 	"/>
	<polygon fill="#48505A" points="98.609,25.81 100.153,25.841 101.699,25.869 101.699,25.81 101.699,25.747 100.153,25.779 	"/>
	<polygon fill="#48505A" points="113.607,28.548 113.563,30.293 113.517,32.039 113.607,32.039 113.7,32.039 113.654,30.293 	"/>
	<polygon fill="#48505A" points="117.023,33.2 114.767,33.119 112.511,33.036 112.511,33.2 112.511,33.365 114.767,33.282 	"/>
	<polygon fill="#48505A" points="117.773,30.451 116.505,30.429 115.234,30.406 115.234,30.451 115.234,30.497 116.505,30.476 	"/>
	<polygon fill="#48505A" points="103.401,13.47 104.967,15.108 106.533,16.747 106.604,16.674 106.678,16.602 105.037,15.034 	"/>
	<polygon fill="#48505A" points="103.445,19.056 104.971,20.737 106.492,22.419 106.651,22.261 106.808,22.104 105.127,20.58 	"/>
</g>
<g>
	<circle fill="#AFD6A6" cx="16.451" cy="42.483" r="6.2"/>
	<path fill="#85C98F" d="M15.812,46.955c-1.102,0.024-2.122-0.677-2.468-1.766C14.444,45.164,15.467,45.865,15.812,46.955z"/>
	<path fill="#85C98F" d="M17.564,42.508c1.161-0.94,2.842-1.037,4.117-0.154C20.52,43.295,18.84,43.391,17.564,42.508z"/>
	<path fill="#85C98F" d="M17.726,41.068c-0.942-1.161-1.037-2.842-0.154-4.116C18.513,38.113,18.608,39.793,17.726,41.068z"/>
	<path fill="#85C98F" d="M14.497,42.947c-0.652-0.805-0.718-1.97-0.107-2.854C15.043,40.899,15.109,42.063,14.497,42.947z"/>
	<path fill="#85C98F" d="M11.554,40.635c0.033,0.897,0.692,1.462,1.576,1.423C13.098,41.161,12.439,40.596,11.554,40.635z"/>
	<path fill="#7BC286" d="M20.569,39.018c-0.896,0.031-1.462,0.689-1.423,1.573C20.043,40.561,20.607,39.901,20.569,39.018z"/>
	<path fill="#7BC286" d="M13.751,43.2c-0.806,0.653-1.969,0.72-2.854,0.107C11.703,42.656,12.867,42.59,13.751,43.2z"/>
	<polygon fill="#48505A" points="16.532,41.006 16.362,48.218 16.19,55.432 16.532,55.432 16.877,55.431 16.705,48.219 	"/>
	<polygon fill="#48505A" points="14.049,42.992 15.251,44.258 16.452,45.526 16.518,45.46 16.583,45.395 15.315,44.192 	"/>
	<polygon fill="#48505A" points="19.752,43.866 18.1,45.404 16.445,46.941 16.562,47.057 16.679,47.174 18.216,45.521 	"/>
	<polygon fill="#48505A" points="18.34,41.392 17.428,42.272 16.514,43.155 16.547,43.187 16.578,43.219 17.459,42.306 	"/>
</g>
<g>
	<circle fill="#7BC286" cx="272.263" cy="9.577" r="9.577"/>
	<circle fill="#AFD6A6" cx="281.805" cy="25.564" r="6.553"/>
	<circle fill="#85C98F" cx="264.954" cy="19.227" r="4.392"/>
	<path fill="#AFD6A6" d="M266.766,19.806c-0.734-0.903-0.809-2.211-0.123-3.204C267.375,17.505,267.452,18.814,266.766,19.806z"/>
	<path fill="#AFD6A6" d="M268.096,7.052c-1.156-0.12-2.135-0.992-2.351-2.181C266.902,4.993,267.879,5.864,268.096,7.052z"/>
	<path fill="#AFD6A6" d="M278.506,9.515c0.12-1.158,0.993-2.136,2.179-2.352C280.564,8.32,279.693,9.297,278.506,9.515z"/>
	<path fill="#85C98F" d="M277.983,28.428c-0.84-0.806-1.079-2.093-0.522-3.163C278.302,26.07,278.541,27.356,277.983,28.428z"/>
	<path fill="#85C98F" d="M282.618,26.414c1.573,0.165,2.899,1.35,3.193,2.962C284.239,29.212,282.912,28.027,282.618,26.414z"/>
	<path fill="#85C98F" d="M283.815,25.459c0.164-1.573,1.348-2.897,2.961-3.191C286.61,23.84,285.427,25.166,283.815,25.459z"/>
	<path fill="#85C98F" d="M275.943,10.988c-0.995-1.229-1.097-3.003-0.163-4.351C276.775,7.863,276.875,9.639,275.943,10.988z"/>
	<path fill="#85C98F" d="M269.821,8.251c-0.994-1.228-1.097-3.003-0.163-4.351C270.653,5.128,270.755,6.904,269.821,8.251z"/>
	<path fill="#85C98F" d="M264.973,9.47c1.229-0.995,3.001-1.096,4.352-0.163C268.096,10.302,266.32,10.404,264.973,9.47z"/>
	<path fill="#85C98F" d="M281.134,12.187c-1.228,0.995-3.001,1.099-4.351,0.164C278.01,11.354,279.786,11.255,281.134,12.187z"/>
	<path fill="#85C98F" d="M279.999,24.451c0.114-1.091,0.934-2.009,2.053-2.214C281.937,23.327,281.116,24.247,279.999,24.451z"/>
	<path fill="#85C98F" d="M279.528,20.524c-0.646,0.694-0.576,1.606,0.113,2.239C280.288,22.069,280.218,21.155,279.528,20.524z"/>
	<path fill="#7BC286" d="M287.474,26.053c-0.694-0.647-1.608-0.578-2.24,0.112C285.928,26.812,286.841,26.742,287.474,26.053z"/>
	<path fill="#7BC286" d="M279.251,24.082c-1.091-0.113-2.01-0.934-2.214-2.052C278.126,22.144,279.047,22.964,279.251,24.082z"/>
	<path fill="#7BC286" d="M264.493,18.503c-0.992-0.104-1.833-0.853-2.018-1.874C263.47,16.733,264.309,17.481,264.493,18.503z"/>
	<path fill="#AFD6A6" d="M264.767,20.836c-0.767-0.08-1.412-0.656-1.555-1.439C263.978,19.475,264.622,20.053,264.767,20.836z"/>
	<path fill="#AFD6A6" d="M265.342,17.021c-0.535-0.058-0.986-0.458-1.085-1.008C264.791,16.07,265.242,16.472,265.342,17.021z"/>
	<path fill="#AFD6A6" d="M264.726,21.735c-0.057,0.534-0.458,0.985-1.004,1.085C263.775,22.286,264.179,21.835,264.726,21.735z"/>
	<polygon fill="#48505A" points="272.264,4.319 271.78,28.441 271.296,52.562 272.264,52.562 273.229,52.562 272.747,28.441 	"/>
	<polygon fill="#48505A" points="277.834,10.168 274.97,12.898 272.104,15.63 272.237,15.763 272.369,15.896 275.104,13.033 	"/>
	<polygon fill="#48505A" points="282.972,24.521 277.452,29.783 271.933,35.046 272.189,35.304 272.446,35.56 277.707,30.041 	"/>
	<polygon fill="#48505A" points="264.704,18.944 268.34,22.757 271.974,26.568 272.15,26.392 272.328,26.214 268.517,22.58 	"/>
	<polygon fill="#48505A" points="263.777,21.254 265.409,21.287 267.043,21.317 267.043,21.254 267.043,21.188 265.409,21.222 	"/>
	<polygon fill="#48505A" points="279.629,24.148 279.583,25.992 279.533,27.838 279.629,27.838 279.728,27.838 279.679,25.992 	"/>
	<polygon fill="#48505A" points="283.239,29.065 280.854,28.979 278.47,28.892 278.47,29.065 278.47,29.24 280.854,29.152 	"/>
	<polygon fill="#48505A" points="284.032,26.16 282.691,26.136 281.349,26.112 281.349,26.16 281.349,26.208 282.691,26.186 	"/>
	<polygon fill="#48505A" points="268.842,8.212 270.497,9.943 272.152,11.676 272.228,11.598 272.305,11.521 270.571,9.865 	"/>
	<polygon fill="#48505A" points="268.889,14.115 270.501,15.893 272.108,17.67 272.277,17.503 272.442,17.337 270.666,15.727 	"/>
</g>
</svg>
